<svg width="194" height="34" viewBox="0 0 194 34" fill="none" xmlns="http://www.w3.org/2000/svg">
<path d="M26.8955 7.62939e-06H11.2977C6.22039 7.62939e-06 2.09668 4.12372 2.09668 9.20108V24.7988C2.09668 29.8761 6.22039 33.9999 11.2977 33.9999H26.8955C31.9728 33.9999 36.0965 29.8761 36.0965 24.7988V9.20108C36.0438 4.12372 31.9163 7.62939e-06 26.8955 7.62939e-06ZM33.081 24.746C33.081 28.1837 30.3331 30.9316 26.8955 30.9316H11.2977C8.76095 30.9316 6.59355 29.3974 5.6399 27.1773L6.16761 26.7023L7.27958 23.4757L5.11219 19.7742V9.14454C5.11219 5.70686 7.86007 2.95898 11.2977 2.95898H26.8955C30.3331 2.95898 33.081 5.75963 33.081 9.14454V24.746Z" fill="#E6E7E8"/>
<path d="M29.5378 24.1655C29.8545 24.271 30.2239 24.3238 30.6498 24.3238C32.2895 24.3238 33.0811 23.6906 33.0811 22.8952C33.0811 21.9981 31.8108 21.9981 31.7052 21.15C31.5469 20.1436 31.6525 15.6505 33.3977 13.2192L34.5624 13.7469C34.5624 13.7469 34.8791 13.958 35.3012 13.9052C35.5651 13.9052 35.8289 13.7997 36.0928 13.4831C36.7261 12.797 38.524 10.5203 39.1083 9.30659C39.2666 8.98996 36.8354 5.97445 35.4595 4.86625C34.5097 4.12745 33.3449 3.64874 32.0219 3.64874C29.6434 3.64874 27.5815 5.18288 26.839 7.2975C25.3048 8.40947 22.2931 10.1509 19.0665 10.999C15.3122 12.0055 11.4523 11.0518 8.81 11.2101C5.42509 11.3684 3.41601 13.8525 3.46878 16.7097C3.57432 19.6196 5.53063 22.262 5.53063 25.0098C5.53063 27.1772 3.78541 28.1309 2.5679 28.1309C1.1393 28.1309 1.03376 27.5504 0.611587 27.5504C0.453273 27.5504 0.242188 27.7087 0.242188 27.9198C0.242188 28.6586 2.04018 29.3484 3.04284 29.3484C5.73795 29.3484 6.84992 27.4449 6.84992 27.4449C6.84992 27.4449 7.53595 29.4539 10.1821 29.4539C12.2967 29.4539 13.1976 28.4475 13.1976 27.6032C13.1976 26.9171 12.7754 26.5968 12.4588 26.2274C12.0366 25.6469 12.0366 24.9571 12.0366 24.9571C12.0366 24.9571 12.5115 25.0098 13.2013 25.0098C14.7355 25.0098 15.2104 24.3766 15.2104 23.7923C15.2104 23.0008 14.3133 23.0535 14.3133 21.7832C14.3133 20.7768 14.841 20.4602 15.3197 20.4602C15.8474 20.4602 17.8037 20.6713 20.186 20.8824C20.9776 20.9351 22.9866 21.7267 22.9866 24.795V25.907C22.9866 27.7577 23.7254 30.0834 27.0576 30.0834C29.3305 30.0834 30.6008 28.8132 30.6008 27.916C30.6008 27.3356 30.0731 27.0717 29.8092 26.6985C29.1684 25.6431 29.5378 24.1655 29.5378 24.1655Z" fill="#FF671B"/>
<path d="M34.985 10.7352C34.7737 10.7352 34.6152 10.8937 34.6152 11.105C34.6152 11.3163 34.7737 11.4748 34.985 11.4748C35.1964 11.4748 35.3548 11.3163 35.3548 11.105C35.4077 10.8937 35.1964 10.7352 34.985 10.7352Z" fill="white"/>
<path d="M36.361 9.5705C36.1497 9.5705 35.9912 9.72899 35.9912 9.94031C35.9912 10.1516 36.1497 10.3101 36.361 10.3101C36.5723 10.3101 36.7308 10.1516 36.7308 9.94031C36.7308 9.72899 36.5723 9.5705 36.361 9.5705Z" fill="white"/>
<path d="M36.9942 8.24736C36.8357 8.24736 36.6772 8.35302 36.6772 8.56433C36.6772 8.72282 36.7829 8.88131 36.9942 8.88131C37.1527 8.88131 37.3112 8.77565 37.3112 8.56433C37.3112 8.40962 37.1527 8.24736 36.9942 8.24736Z" fill="white"/>
<path d="M25.784 10.0991C25.9953 10.0991 26.2066 9.88781 26.2066 9.67649C26.2066 9.46518 25.9953 9.25386 25.784 9.25386C25.5726 9.25386 25.3613 9.46518 25.3613 9.67649C25.3613 9.94064 25.5726 10.0991 25.784 10.0991Z" fill="white"/>
<path d="M27.4236 20.3585C27.2123 20.3585 27.001 20.5698 27.001 20.7811C27.001 20.9925 27.2123 21.2038 27.4236 21.2038C27.6349 21.2038 27.8462 20.9925 27.8462 20.7811C27.8462 20.517 27.6349 20.3585 27.4236 20.3585Z" fill="white"/>
<path d="M29.9075 20.7806C29.6962 20.7806 29.4849 20.9919 29.4849 21.2032C29.4849 21.4146 29.6962 21.6259 29.9075 21.6259C30.1188 21.6259 30.3301 21.4146 30.3301 21.2032C30.3339 20.9391 30.1754 20.7806 29.9075 20.7806Z" fill="white"/>
<path d="M27.7405 16.4987C27.5292 16.4987 27.3179 16.71 27.3179 16.9213C27.3179 17.1326 27.5292 17.3439 27.7405 17.3439C27.9518 17.3439 28.1631 17.1326 28.1631 16.9213C28.1631 16.71 28.0047 16.4987 27.7405 16.4987Z" fill="white"/>
<path d="M29.2215 13.6423C29.4328 13.6423 29.6441 13.431 29.6441 13.2197C29.6441 13.0083 29.4328 12.797 29.2215 12.797C29.0101 12.797 28.7988 13.0083 28.7988 13.2197C28.7988 13.431 28.9573 13.6423 29.2215 13.6423Z" fill="white"/>
<path d="M22.6141 11.9499C22.8254 11.9499 23.0367 11.7386 23.0367 11.5273C23.0367 11.316 22.8254 11.1047 22.6141 11.1047C22.4028 11.1047 22.1915 11.316 22.1915 11.5273C22.1877 11.7386 22.399 11.9499 22.6141 11.9499Z" fill="white"/>
<path d="M24.9925 19.4576C24.7811 19.4576 24.5698 19.6689 24.5698 19.8802C24.5698 20.0915 24.7811 20.3029 24.9925 20.3029C25.2038 20.3029 25.4151 20.0915 25.4151 19.8802C25.4151 19.6689 25.2038 19.4576 24.9925 19.4576Z" fill="white"/>
<path d="M23.8279 14.0117C24.0392 14.0117 24.2505 13.8004 24.2505 13.5891C24.2505 13.3778 24.0392 13.1664 23.8279 13.1664C23.6166 13.1664 23.4053 13.3778 23.4053 13.5891C23.4053 13.8004 23.5638 14.0117 23.8279 14.0117Z" fill="white"/>
<path d="M21.1326 16.393C20.9213 16.393 20.71 16.6043 20.71 16.8157C20.71 17.027 20.9213 17.2383 21.1326 17.2383C21.3439 17.2383 21.5552 17.027 21.5552 16.8157C21.5552 16.6043 21.3967 16.393 21.1326 16.393Z" fill="white"/>
<path d="M25.5203 15.968C25.7316 15.968 25.9429 15.7567 25.9429 15.5454C25.9429 15.3341 25.7316 15.1228 25.5203 15.1228C25.309 15.1228 25.0977 15.3341 25.0977 15.5454C25.0977 15.7567 25.2561 15.968 25.5203 15.968Z" fill="white"/>
<path d="M18.8069 12.1599C18.5956 12.1599 18.3843 12.3713 18.3843 12.5826C18.3843 12.7939 18.5956 13.0052 18.8069 13.0052C19.0182 13.0052 19.2295 12.7939 19.2295 12.5826C19.2295 12.375 19.0711 12.1599 18.8069 12.1599Z" fill="white"/>
<path d="M19.7566 14.384C19.5453 14.384 19.334 14.5953 19.334 14.8066C19.334 15.0179 19.5453 15.2292 19.7566 15.2292C19.9679 15.2292 20.1793 15.0179 20.1793 14.8066C20.1793 14.5425 19.9679 14.384 19.7566 14.384Z" fill="white"/>
<path d="M22.825 18.0854C22.6137 18.0854 22.4023 18.2968 22.4023 18.5081C22.4023 18.7194 22.6137 18.9307 22.825 18.9307C23.0363 18.9307 23.2476 18.7194 23.2476 18.5081C23.2476 18.2439 23.0891 18.0854 22.825 18.0854Z" fill="white"/>
<path d="M27.2127 12.0554C27.424 12.0554 27.6353 11.8441 27.6353 11.6327C27.6353 11.4214 27.424 11.2101 27.2127 11.2101C27.0014 11.2101 26.79 11.4214 26.79 11.6327C26.79 11.8969 26.9485 12.0554 27.2127 12.0554Z" fill="white"/>
<path d="M30.3338 17.2902C30.1225 17.2902 29.9111 17.5015 29.9111 17.7128C29.9111 17.9241 30.1225 18.1354 30.3338 18.1354C30.5451 18.1354 30.7564 17.9241 30.7564 17.7128C30.7036 17.5015 30.5451 17.2902 30.3338 17.2902Z" fill="white"/>
<path d="M31.3889 13.8525C31.1776 13.8525 30.9663 14.0639 30.9663 14.2752C30.9663 14.4865 31.1776 14.6978 31.3889 14.6978C31.6003 14.6978 31.8116 14.4865 31.8116 14.2752C31.8116 14.0639 31.6003 13.8525 31.3889 13.8525Z" fill="white"/>
<path d="M31.0725 10.3658C30.8612 10.3658 30.6499 10.5771 30.6499 10.7884C30.6499 10.9997 30.8612 11.211 31.0725 11.211C31.2839 11.211 31.4952 10.9997 31.4952 10.7884C31.4952 10.5771 31.3367 10.3658 31.0725 10.3658Z" fill="white"/>
<path d="M33.0813 11.0517C32.87 11.0517 32.6587 11.2631 32.6587 11.4744C32.6587 11.6857 32.87 11.897 33.0813 11.897C33.2926 11.897 33.504 11.6857 33.504 11.4744C33.504 11.2102 33.3455 11.0517 33.0813 11.0517Z" fill="white"/>
<path d="M29.5911 9.09555C29.3798 9.09555 29.1685 9.30687 29.1685 9.51818C29.1685 9.7295 29.3798 9.94082 29.5911 9.94082C29.8024 9.94082 30.0137 9.7295 30.0137 9.51818C30.0137 9.25404 29.8024 9.09555 29.5911 9.09555Z" fill="white"/>
<path d="M28.7469 7.50859C28.5355 7.50859 28.3242 7.71991 28.3242 7.93123C28.3242 8.14255 28.5355 8.35386 28.7469 8.35386C28.9582 8.35386 29.1695 8.14255 29.1695 7.93123C29.1695 7.66708 29.011 7.50859 28.7469 7.50859Z" fill="white"/>
<path d="M30.492 7.50859C30.2807 7.50859 30.0693 7.71991 30.0693 7.93123C30.0693 8.14255 30.2807 8.35386 30.492 8.35386C30.7033 8.35386 30.9146 8.14255 30.9146 7.93123C30.9146 7.66708 30.7561 7.50859 30.492 7.50859Z" fill="white"/>
<path d="M28.4824 6.34428C28.4824 6.13297 28.6409 5.97448 28.8522 5.97448C29.0635 5.97448 29.222 6.13297 29.222 6.34428C29.222 6.5556 29.0635 6.71409 28.8522 6.71409C28.6409 6.66503 28.4824 6.50655 28.4824 6.34428Z" fill="white"/>
<path d="M29.5376 5.02485C29.5376 4.86636 29.6433 4.7607 29.8017 4.7607C29.9602 4.7607 30.0659 4.86636 30.0659 5.02485C30.0659 5.18334 29.9602 5.289 29.8017 5.289C29.6961 5.289 29.5376 5.18334 29.5376 5.02485Z" fill="white"/>
<path d="M30.9136 4.44053C30.9136 4.33487 31.0192 4.22921 31.1249 4.22921C31.2305 4.22921 31.3362 4.33487 31.3362 4.44053C31.3362 4.54619 31.2305 4.65184 31.1249 4.65184C31.0192 4.65562 30.9136 4.54996 30.9136 4.44053Z" fill="white"/>
<path d="M36.73 7.35055C36.73 7.24489 36.8356 7.13923 36.9413 7.13923C37.047 7.13923 37.1526 7.24489 37.1526 7.35055C37.1526 7.4562 37.047 7.56186 36.9413 7.56186C36.8356 7.56186 36.73 7.4562 36.73 7.35055Z" fill="white"/>
<path d="M36.4131 11.5798C36.4131 11.4741 36.5187 11.3685 36.6244 11.3156C36.7301 11.3156 36.8357 11.4213 36.8886 11.527C36.8886 11.6326 36.7829 11.7383 36.6772 11.7911C36.5187 11.7911 36.4131 11.6854 36.4131 11.5798Z" fill="white"/>
<path d="M37.0464 10.7883C37.0464 10.6826 37.152 10.577 37.2577 10.5241C37.3634 10.5241 37.469 10.6298 37.5219 10.7354C37.5219 10.8411 37.4162 10.9468 37.3105 10.9996C37.152 10.9996 37.0464 10.8939 37.0464 10.7883Z" fill="white"/>
<path d="M35.7764 12.3751C35.7764 12.2694 35.882 12.1638 35.9877 12.111C36.0933 12.111 36.199 12.2166 36.2518 12.3223C36.2518 12.4279 36.1462 12.5336 36.0405 12.5864C35.882 12.6393 35.7764 12.5336 35.7764 12.3751Z" fill="white"/>
<path d="M35.0903 13.1668C35.0903 13.0611 35.196 12.9554 35.3017 12.9026C35.4073 12.9026 35.513 13.0083 35.5658 13.1139C35.5658 13.2196 35.4601 13.3252 35.3545 13.3781C35.196 13.3781 35.0903 13.2724 35.0903 13.1668Z" fill="white"/>
<path d="M37.5742 9.9401C37.5742 9.83444 37.6799 9.72878 37.7855 9.67595C37.8912 9.67595 37.9969 9.78161 37.9969 9.88727C37.9969 9.99292 37.8912 10.0986 37.7855 10.1514C37.6799 10.1514 37.5742 10.0986 37.5742 9.9401Z" fill="white"/>
<path d="M38 9.25411C38 9.14845 38.1057 9.04279 38.2113 8.98996C38.317 8.98996 38.4226 9.09562 38.4755 9.20128C38.4755 9.30693 38.3698 9.41259 38.2641 9.46542C38.1057 9.46542 38 9.35976 38 9.25411Z" fill="white"/>
<path d="M11.6144 27.1245C11.6144 27.1245 10.0802 24.4294 11.1394 21.7305C12.3042 18.715 15.7381 19.0882 15.7381 19.0882C15.2104 18.8243 14.5734 18.7188 13.9401 18.7188C11.5616 18.8243 9.76362 20.9389 9.86916 23.5285C9.86916 25.0099 10.5552 26.2802 11.6144 27.1245Z" fill="white"/>
<path d="M5.90392 18.5604C5.2179 17.8744 4.84473 16.9735 4.84473 15.9709C4.84473 13.9618 6.48441 12.4276 8.49349 12.3221C10.6081 12.2165 14.4152 12.8498 16.8464 12.5332C17.6908 16.2875 21.4451 19.989 24.4078 21.6287C20.9174 20.0946 17.5852 16.5513 14.6263 14.9154C11.558 13.223 8.49349 12.9591 6.90658 14.4405C5.53452 15.7032 5.64007 17.5012 5.90392 18.5604Z" fill="white"/>
<path d="M14.5207 22.4203C14.7317 23.5323 12.7227 23.8489 12.7227 23.8489C14.5207 24.1655 15.1539 23.2156 15.1539 23.2156L14.5207 22.4203Z" fill="white"/>
<path d="M28.7462 23.0007C28.7462 23.0007 27.5815 24.6404 28.3768 27.6521C27.9019 28.127 27.001 28.4964 26.3149 28.7113C26.3149 28.7113 29.0101 29.0807 29.8582 27.5993C28.2147 26.3328 28.6934 23.2118 28.7462 23.0007Z" fill="white"/>
<path d="M34.1405 5.76341C33.0813 5.55232 32.1314 6.1328 31.9731 6.98091C31.8148 7.82526 32.5536 8.72614 33.56 8.88446C34.6192 9.09554 35.5691 8.51505 35.7274 7.66694C35.8819 6.8226 35.1959 5.97449 34.1405 5.76341ZM35.4597 7.61417C35.3542 8.24743 34.6682 8.6206 33.9256 8.51128C33.1868 8.35297 32.6553 7.77249 32.7609 7.13546C32.8664 6.5022 33.5524 6.12903 34.295 6.23835C35.0376 6.40043 35.5653 7.03368 35.4597 7.61417Z" fill="white"/>
<path d="M34.0349 7.35027C34.0876 7.03364 34.457 6.76979 34.8792 6.87533C35.3014 6.9281 35.5652 7.2975 35.5125 7.61412C35.4597 7.93075 35.0903 8.19461 34.6681 8.08907C34.2459 8.0363 33.9783 7.71967 34.0349 7.35027Z" fill="white"/>
<path d="M31.8109 21.4667C32.4442 22.6842 30.3823 23.1063 30.3823 23.1063C31.8109 23.3702 32.6553 22.4203 32.6553 22.0471C32.3424 20.7806 32.022 21.7305 31.8109 21.4667Z" fill="white"/>
<path d="M36.1494 6.71697C35.6217 5.81986 34.668 5.18283 33.5071 5.18283C32.5006 5.18283 31.6035 5.71055 31.023 6.45312C30.8647 6.6642 30.5481 6.71698 30.337 6.50589C30.1259 6.34758 30.1259 6.03094 30.2842 5.81986C30.9175 5.08106 31.8711 4.65512 32.9266 4.65512C34.4042 4.65512 35.6179 5.49946 36.1494 6.71697Z" fill="white"/>
<path d="M32.8698 12.9554C31.8106 12.9026 30.3858 12.3749 29.1155 11.4212C28.0035 10.6296 27.2119 9.67599 26.7898 8.77887C26.6842 8.62056 26.737 8.40947 26.8953 8.3567C27.0536 8.25116 27.2647 8.30393 27.3175 8.46224C27.7924 9.41213 28.4822 10.4713 29.5377 11.3157C30.6496 12.2165 31.8106 12.797 32.8698 12.9554Z" fill="white"/>
<path d="M31.4412 15.9143C29.4848 15.8087 27.2647 14.7495 25.5194 13.0043C24.7279 12.16 24.0909 11.2591 23.6687 10.4147C23.5631 10.2564 23.6159 10.0453 23.7742 9.99258C23.9325 9.88703 24.1436 9.93981 24.1964 10.0981C24.7241 11.1573 25.3611 12.3183 26.3638 13.3775C27.8979 14.8589 29.7487 15.7032 31.4412 15.9143Z" fill="white"/>
<path d="M20.4424 11.474C20.6007 11.4212 20.8118 11.5267 20.8646 11.6851C21.7089 13.7469 22.1349 14.595 23.718 16.2837C25.8854 18.5566 29.0065 19.4048 30.6989 19.4048C29.2176 19.5103 25.6216 18.877 23.0848 16.2309C21.6562 14.7496 20.6535 13.2154 20.1748 11.8434C20.1786 11.7378 20.2841 11.5267 20.4424 11.474Z" fill="white"/>
<path d="M31.9161 8.98996C32.3383 9.25381 32.9753 9.51767 33.7669 9.57044C35.5121 9.62321 36.1454 8.24739 36.1981 7.6669C36.1981 8.0363 35.7232 9.99262 33.5558 9.99262C32.7115 9.99262 32.0744 9.8343 31.5995 9.51767C31.4412 9.41213 31.3884 9.25381 31.4412 9.0955C31.5467 8.98996 31.7578 8.88442 31.9161 8.98996Z" fill="white"/>
<path d="M49.5268 24.06C49.5268 24.6932 49.1574 25.2247 48.6297 25.383C49.2101 25.5941 49.6889 26.1218 49.6889 26.8116C49.6889 28.0291 48.8445 28.6096 47.3104 28.6096H44.5625V22.2657H47.1521C48.6259 22.262 49.5268 22.8425 49.5268 24.06ZM45.8252 24.9043H47.1483C47.7816 24.9043 48.2603 24.7988 48.2603 24.1655C48.2603 23.585 47.7853 23.4267 47.1483 23.4267H45.8252V24.9043ZM45.8252 27.4939H47.2538C47.9399 27.4939 48.3658 27.3356 48.3658 26.7023C48.3658 26.1218 47.9436 25.9635 47.2538 25.9635H45.8252V27.4939Z" fill="#6D6F71"/>
<path d="M55.2337 28.6586L54.706 27.1773H52.0109L51.4832 28.6586H50.1602L52.6442 22.3148H54.1783L56.6623 28.6586H55.2337ZM54.2311 25.9635L53.334 23.5323L52.3841 25.9635H54.2311Z" fill="#6D6F71"/>
<path d="M61.8979 28.6586L58.6713 24.3766V28.6586H57.4048V22.262H58.5658L61.7923 26.544V22.262H63.0626V28.6586H61.8979Z" fill="#6D6F71"/>
<path d="M65.7581 26.0163V28.6586H64.4878V22.262H65.7581V24.8515H66.3386L68.4532 22.262H70.0401L67.3978 25.3792L70.2512 28.6586H68.6115L66.3386 26.0163H65.7581Z" fill="#6D6F71"/>
<path d="M79.4519 25.4848C79.4519 27.3883 78.076 28.7642 76.1197 28.7642C74.1634 28.7642 72.7876 27.3883 72.7876 25.4848C72.7876 23.5813 74.1634 22.2054 76.1197 22.2054C78.076 22.1564 79.4519 23.5813 79.4519 25.4848ZM74.1106 25.4848C74.1106 26.7023 74.955 27.5467 76.1197 27.5467C77.2845 27.5467 78.1288 26.7023 78.1288 25.4848C78.1288 24.2673 77.2845 23.4229 76.1197 23.4229C74.9588 23.3702 74.1106 24.2183 74.1106 25.4848Z" fill="#6D6F71"/>
<path d="M81.8304 26.069V28.6586H80.6167V22.262H85.2681V23.4229H81.8304V24.9043H85.057V26.069H81.8304Z" fill="#6D6F71"/>
<path d="M94.0999 23.1591L93.2028 24.0562C92.8334 23.6341 92.3057 23.3702 91.6686 23.3702C90.5039 23.3702 89.6596 24.2146 89.6596 25.4848C89.6596 26.8079 90.5567 27.5995 91.6159 27.5995C92.6751 27.5995 93.2555 27.1245 93.4139 26.2236H91.7742V25.1644H94.6841C94.6841 25.27 94.6841 25.4283 94.6841 25.5338C94.6841 27.4374 93.3611 28.8132 91.5631 28.8132C89.8179 28.8132 88.231 27.5429 88.231 25.5338C88.231 23.6303 89.6596 22.2545 91.5631 22.2545C92.7241 22.1565 93.5684 22.5259 94.0999 23.1591Z" fill="#6D6F71"/>
<path d="M95.8979 28.6586V22.262H100.602V23.4229H97.1645V24.8515H100.444V26.0163H97.1645V27.4939H100.655V28.6586H95.8979Z" fill="#6D6F71"/>
<path d="M108.269 25.4848C108.269 27.3883 106.893 28.7642 104.937 28.7642C102.98 28.7642 101.604 27.3883 101.604 25.4848C101.604 23.5813 102.98 22.2054 104.937 22.2054C106.893 22.1564 108.269 23.5813 108.269 25.4848ZM102.928 25.4848C102.928 26.7023 103.772 27.5467 104.937 27.5467C106.101 27.5467 106.946 26.7023 106.946 25.4848C106.946 24.2673 106.101 23.4229 104.937 23.4229C103.776 23.3702 102.928 24.2183 102.928 25.4848Z" fill="#6D6F71"/>
<path d="M114.402 24.2183C114.402 25.2247 113.716 25.9635 112.498 26.069H112.445L114.402 28.6058H112.867L111.017 26.069H110.647V28.6058H109.377V22.262H112.072C113.61 22.262 114.402 23.0008 114.402 24.2183ZM110.7 25.0098H112.076C112.762 25.0098 113.135 24.746 113.135 24.2183C113.135 23.6906 112.766 23.4267 112.076 23.4267H110.7V25.0098Z" fill="#6D6F71"/>
<path d="M121.013 23.1591L120.116 24.0562C119.747 23.6341 119.219 23.3702 118.582 23.3702C117.417 23.3702 116.573 24.2146 116.573 25.4848C116.573 26.8079 117.47 27.5995 118.529 27.5995C119.589 27.5995 120.169 27.1245 120.327 26.2236H118.688V25.1644H121.598C121.598 25.27 121.598 25.4283 121.598 25.5338C121.598 27.4374 120.275 28.8132 118.477 28.8132C116.731 28.8132 115.145 27.5429 115.145 25.5338C115.145 23.6303 116.573 22.2545 118.477 22.2545C119.638 22.1565 120.482 22.5259 121.013 23.1591Z" fill="#6D6F71"/>
<path d="M124.081 22.262H122.811V28.6058H124.081V22.262Z" fill="#6D6F71"/>
<path d="M130.052 28.6586L129.524 27.1773H126.829L126.302 28.6586H124.979L127.463 22.3148H128.997L131.481 28.6586H130.052ZM129.049 25.9635L128.152 23.5323L127.202 25.9635H129.049Z" fill="#6D6F71"/>
<path d="M44.5552 13.5886V8.51126H46.2476V13.5359C46.2476 14.9644 46.9337 15.5977 47.9401 15.5977C48.9993 15.5977 49.6853 15.0172 49.6853 14.0636C49.6853 12.9516 48.4678 12.7405 48.4678 11.4212H50.1603C50.213 12.16 51.4305 12.4804 51.4305 14.2747C51.4305 15.9671 50.0019 17.1846 47.9401 17.1846C45.931 17.1318 44.5552 15.9143 44.5552 13.5886Z" fill="#6D6F71"/>
<path d="M52.4858 13.5886V13.0609H54.1783V13.5359C54.1783 14.9645 54.8643 15.5977 55.9235 15.5977C56.9827 15.5977 57.616 14.9645 57.616 13.958C57.616 12.0017 54.9736 11.4212 54.9736 9.09176V8.56404H56.6661V8.98621C56.6661 10.837 59.414 10.9953 59.414 13.958C59.414 16.0199 57.9854 17.2374 55.9235 17.2374C53.8617 17.2374 52.4858 15.9143 52.4858 13.5886Z" fill="#6D6F71"/>
<path d="M60.4692 13.958V13.4303H62.1617V13.9052C62.1617 14.9644 62.8477 15.5977 63.8014 15.5977C64.8078 15.5977 65.4411 14.9644 65.4411 13.5359V12.2128C65.4411 11.0481 64.7023 10.6787 63.9597 10.6787C62.9533 10.6787 62.5839 11.3119 62.5839 11.9489V12.1073H60.8914V11.9489C60.8914 10.362 62.1089 9.20106 63.6393 9.20106C64.2198 9.20106 65.0151 9.41215 65.4373 10.1509V8.51126H67.1297V13.5886C67.1297 15.9671 65.7539 17.1318 63.7448 17.1318C61.8451 17.1318 60.4692 15.9143 60.4692 13.958Z" fill="#6D6F71"/>
<path d="M68.3477 13.5886V13.0609H70.0401V13.5359C70.0401 14.9645 70.7261 15.5977 71.7853 15.5977C72.8445 15.5977 73.4778 14.9645 73.4778 13.958C73.4778 12.0017 70.8354 11.4212 70.8354 9.09176V8.56404H72.5279V8.98621C72.5279 10.837 75.2758 10.9953 75.2758 13.958C75.2758 16.0199 73.8472 17.2374 71.7853 17.2374C69.7763 17.1318 68.3477 15.9143 68.3477 13.5886Z" fill="#6D6F71"/>
<path d="M86.5383 14.2257V17.0263H84.7931V14.384C84.7931 13.4341 84.3709 12.9026 83.6283 12.9026C82.9423 12.9026 82.3581 13.3776 82.3581 14.2785V16.0237H80.6128V14.2785C80.6128 13.4341 80.1907 12.9026 79.4481 12.9026C78.7621 12.9026 78.2306 13.3776 78.2306 14.384V16.9736H76.4854V13.1665C76.4854 9.35942 79.2332 8.51508 81.4572 8.51508H83.994V10.102H81.721C79.8703 10.102 78.3889 10.6825 78.1778 12.0583C78.5472 11.6361 79.0749 11.3195 79.7119 11.3195C80.398 11.3195 81.1405 11.6889 81.5627 12.6426C82.0904 11.6927 82.8858 11.3195 83.8356 11.3195C85.4263 11.3157 86.5383 12.5332 86.5383 14.2257Z" fill="#6D6F71"/>
<path d="M87.7524 13.5886V11.8962C87.7524 9.57044 89.1283 8.35294 90.979 8.35294C91.9855 8.35294 93.0409 8.7751 93.4631 9.8343C93.9908 8.7751 94.8389 8.35294 95.8415 8.35294C97.3229 8.35294 98.695 9.57045 98.695 11.5268V16.9735H97.0025V11.5268C97.0025 10.5203 96.422 9.88707 95.6267 9.88707C94.8313 9.88707 94.3036 10.5203 94.3036 11.5268V13.5358C94.3036 15.8615 92.9278 17.0791 91.0243 17.0791C89.1283 17.1318 87.7524 15.9143 87.7524 13.5886ZM92.6715 13.4831V11.8962C92.6715 10.5203 91.9855 9.88707 91.0846 9.88707C90.1875 9.88707 89.4977 10.5203 89.4977 11.8962V13.4831C89.4977 14.9117 90.1837 15.5449 91.0846 15.5449C91.9855 15.5449 92.6715 14.9644 92.6715 13.4831Z" fill="#6D6F71"/>
<path d="M100.285 14.0635V13.6414H101.978V13.958C101.978 14.8551 102.664 15.5449 103.776 15.5449C104.888 15.5449 105.521 15.1227 105.521 14.4329C105.521 13.6941 104.835 13.4265 104.145 13.4265H103.248V11.8924H104.145C104.884 11.8924 105.415 11.6813 105.415 10.9953C105.415 10.362 104.835 9.83051 103.776 9.83051C102.664 9.83051 101.978 10.5165 101.978 11.3119V11.523H100.285V11.2063C100.285 9.56665 101.714 8.24361 103.828 8.24361C105.785 8.24361 107.213 9.46112 107.213 10.8859C107.213 11.7831 106.686 12.3145 105.89 12.5784C106.84 12.7367 107.372 13.4227 107.372 14.4292C107.372 15.9105 105.943 17.0187 103.828 17.0187C101.661 17.1318 100.285 15.9143 100.285 14.0635Z" fill="#6D6F71"/>
<path d="M108.533 13.958V13.4303H110.225V13.958C110.225 14.9644 110.911 15.5977 111.865 15.5977C112.871 15.5977 113.505 14.9644 113.505 13.5886V11.9489C113.505 10.5731 112.819 9.93981 111.865 9.93981C110.858 9.93981 110.225 10.5731 110.225 11.5795V11.7378H108.533V11.5795C108.533 9.57041 109.909 8.40567 111.918 8.40567C113.874 8.40567 115.25 9.62318 115.25 11.9489V13.6413C115.25 16.0198 113.874 17.1846 111.918 17.1846C109.909 17.1318 108.533 15.9143 108.533 13.958Z" fill="#6D6F71"/>
<path d="M116.463 12.3221V11.2629C116.463 9.57045 117.628 8.35294 119.158 8.35294C119.897 8.35294 120.904 8.72233 121.326 9.67599C121.748 8.7261 122.702 8.35294 123.388 8.35294C124.021 8.35294 124.975 8.72233 125.344 9.67599C125.819 8.7261 126.72 8.35294 127.564 8.35294C129.098 8.35294 130.207 9.57045 130.207 11.2629V13.4831H128.514V11.2629C128.514 10.313 128.092 9.78153 127.402 9.78153C126.769 9.78153 126.185 10.2565 126.185 11.1574V13.2192H124.492V11.1574C124.492 10.313 123.964 9.78153 123.327 9.78153C122.694 9.78153 122.163 10.2565 122.163 11.1574V13.2192H120.47V11.1574C120.47 10.313 120.048 9.78153 119.358 9.78153C118.725 9.78153 118.194 10.2565 118.194 11.2629V12.1072C118.194 14.3274 119.143 15.3866 122.159 15.3866H127.711V16.9735H121.895C119.426 16.9735 116.463 16.1292 116.463 12.3221Z" fill="#6D6F71"/>
<path d="M141.685 11.2101V16.9735H139.94V11.3684C139.94 10.4185 139.517 9.88706 138.775 9.88706C138.089 9.88706 137.505 10.362 137.505 11.2629V14.8061H135.759V11.2629C135.759 10.4185 135.337 9.88706 134.595 9.88706C133.909 9.88706 133.377 10.362 133.377 11.3684V16.9735H131.632V11.2101C131.632 9.51767 132.849 8.30016 134.432 8.30016C135.224 8.30016 136.23 8.66955 136.653 9.62321C137.128 8.67332 138.028 8.30016 138.978 8.30016C140.629 8.3567 141.685 9.57044 141.685 11.2101Z" fill="#6D6F71"/>
<path d="M143.43 13.5886V8.51126H145.122V13.5359C145.122 14.9644 145.808 15.5977 146.815 15.5977C147.874 15.5977 148.56 15.0172 148.56 14.0636C148.56 12.9516 147.342 12.7405 147.342 11.4212H149.035C149.088 12.16 150.305 12.4804 150.305 14.2747C150.305 15.9671 148.876 17.1846 146.815 17.1846C144.753 17.1846 143.43 15.9143 143.43 13.5886Z" fill="#6D6F71"/>
<path d="M161.301 14.2257C161.301 15.9181 159.925 17.1884 157.863 17.1884C155.801 17.1884 154.478 15.9709 154.478 14.2257C154.478 12.6916 155.537 11.5834 157.226 11.3157V10.7352C157.226 9.83813 156.167 9.83813 156.167 8.51508H157.859C157.859 9.30665 158.918 9.41219 158.918 10.4714V11.4213C160.351 11.7379 161.301 12.7971 161.301 14.2257ZM159.506 14.1729C159.506 13.2758 158.82 12.6916 157.814 12.6916C156.808 12.6916 156.174 13.3248 156.174 14.1729C156.174 15.07 156.86 15.7071 157.814 15.7071C158.869 15.6505 159.506 15.07 159.506 14.1729Z" fill="#6D6F71"/>
<path d="M162.359 13.5886V13.0609H164.052V13.5359C164.052 14.9645 164.738 15.5977 165.797 15.5977C166.856 15.5977 167.49 14.9645 167.49 13.958C167.49 12.0017 164.847 11.4212 164.847 9.09176V8.56404H166.54V8.98621C166.54 10.837 169.287 10.9953 169.287 13.958C169.287 16.0199 167.859 17.2374 165.797 17.2374C163.735 17.1318 162.359 15.9143 162.359 13.5886Z" fill="#6D6F71"/>
<path d="M170.449 14.1729V10.9463C170.449 9.35942 171.93 8.51508 173.359 8.51508H176.691V9.94368H173.623C172.884 9.94368 172.141 10.3131 172.141 11.1084V12.2204C172.458 11.6927 173.091 11.2705 174.203 11.2705C175.79 11.2705 177.219 12.4352 177.219 14.1805C177.219 15.8729 175.79 17.1432 173.834 17.1432C171.825 17.1319 170.449 15.9144 170.449 14.1729ZM175.473 14.1729C175.473 13.3286 174.787 12.6916 173.834 12.6916C172.827 12.6916 172.141 13.3248 172.141 14.1729C172.141 15.07 172.827 15.7071 173.834 15.7071C174.836 15.6505 175.473 15.07 175.473 14.1729Z" fill="#6D6F71"/>
<path d="M178.274 14.0108V13.6414H179.966V13.9052C179.966 14.9117 180.652 15.5449 181.764 15.5449C182.876 15.5449 183.51 15.1227 183.51 14.1691C183.51 13.272 182.824 12.8988 181.712 12.8988H180.973V11.3647H181.87C182.876 11.3647 183.299 10.9425 183.299 10.0416V8.45471H184.991V10.2527C184.991 11.1498 184.463 11.7868 183.51 12.1035C184.459 12.3673 185.202 13.0006 185.202 14.3764C185.202 15.9106 183.773 17.1243 181.659 17.1243C179.65 17.1318 178.274 15.9143 178.274 14.0108Z" fill="#6D6F71"/>
<path d="M186.684 11.8434C186.684 9.57044 188.059 8.35294 189.963 8.35294C191.866 8.35294 193.242 9.57044 193.242 11.8434V16.9735H191.55V11.8434C191.55 10.5203 190.864 9.88707 189.963 9.88707C189.062 9.88707 188.376 10.5203 188.376 11.8434V16.9735H186.684V11.8434Z" fill="#6D6F71"/>
</svg>
