<svg width="49" height="39" viewBox="0 0 49 39" fill="none" xmlns="http://www.w3.org/2000/svg">
<path d="M35.7932 15.8792C35.1389 16.5945 34.6933 17.5059 34.5129 18.498C34.3325 19.4902 34.4254 20.5185 34.7798 21.4529C35.1342 22.3874 35.7342 23.1859 36.5038 23.7476C37.2735 24.3093 38.1783 24.6088 39.1037 24.6084H47.7774H47.8634V33.8326C47.8631 34.9373 47.4614 35.9966 46.7468 36.7777C46.0322 37.5588 45.063 37.9978 44.0523 37.9982H5.31109C4.30044 37.9978 3.33127 37.5588 2.61663 36.7777C1.90199 35.9966 1.50035 34.9373 1.5 33.8326V5.16848C1.49965 4.62121 1.59797 4.07922 1.78934 3.57349C1.98071 3.06777 2.26138 2.60821 2.61531 2.22109C2.96923 1.83398 3.38948 1.52688 3.85204 1.31736C4.31459 1.10784 4.81039 1 5.31109 1H44.0497C44.5504 1 45.0462 1.10784 45.5087 1.31736C45.9713 1.52688 46.3915 1.83398 46.7455 2.22109C47.0994 2.60821 47.3801 3.06777 47.5714 3.57349C47.7628 4.07922 47.8611 4.62121 47.8608 5.16848V14.3927H47.7747H39.1011C38.4873 14.3902 37.8791 14.5202 37.3115 14.7753C36.7438 15.0304 36.2278 15.4055 35.7932 15.8792Z" stroke="white" stroke-width="2" stroke-miterlimit="10"/>
</svg>
