<svg width="52" height="52" viewBox="0 0 52 52" fill="none" xmlns="http://www.w3.org/2000/svg">
<path d="M46.075 48.5661C46.6561 48.2509 47.1415 47.786 47.4802 47.2199C47.8188 46.6538 47.9984 46.0074 48 45.3485V24.2401C47.9998 23.7335 47.8938 23.2325 47.6886 22.7689C47.4835 22.3053 47.1837 21.8893 46.8083 21.5473L46.075 48.5661ZM46.075 48.5661C45.5421 48.8587 44.9418 49.0081 44.3333 48.9997L46.075 48.5661ZM46.1358 22.2874C46.4082 22.5358 46.6255 22.8376 46.7742 23.1736C46.923 23.5098 46.9998 23.873 47 24.2401C47 24.2402 47 24.2403 47 24.2404L47 45.346C47 45.3465 47 45.347 47 45.3474C46.9986 45.8257 46.8682 46.295 46.622 46.7065C46.3756 47.1183 46.0222 47.4572 45.5983 47.687L45.5938 47.6895C45.2126 47.8988 44.783 48.0058 44.3472 47.9998V47.9997H44.3333H33.3333C33.111 47.9997 32.8986 47.9117 32.7426 47.7564C32.5868 47.6012 32.5 47.3917 32.5 47.1741V36.2205C32.5 35.4698 32.2005 34.7506 31.6687 34.221C31.137 33.6916 30.4168 33.3949 29.6667 33.3949H22.3334C21.5833 33.3949 20.8631 33.6916 20.3314 34.221C19.7996 34.7506 19.5 35.4698 19.5 36.2205V47.1741C19.5 47.3917 19.4133 47.6012 19.2574 47.7564C19.1015 47.9117 18.8891 47.9997 18.6667 47.9997L7.66671 47.9997L7.66295 47.9997C7.28491 48.0011 6.91107 47.9219 6.5666 47.7675C6.22502 47.6145 5.92033 47.3911 5.67249 47.1125C5.23481 46.594 4.99674 45.9382 5.00005 45.2621V45.2572L5.00005 24.2404C5.00005 24.2403 5.00005 24.2402 5.00005 24.2401C5.00021 23.873 5.07706 23.5098 5.22585 23.1736L4.31692 22.7713L5.22585 23.1736C5.37448 22.8377 5.59172 22.536 5.86402 22.2876C5.8644 22.2873 5.86478 22.2869 5.86515 22.2866L24.196 5.69876L24.1985 5.69651C24.6898 5.24887 25.3325 5 26 5C26.6676 5 27.3102 5.24887 27.8016 5.69652L27.804 5.69876L46.1349 22.2866C46.1352 22.2869 46.1355 22.2871 46.1358 22.2874Z" stroke="white" stroke-width="2"/>
</svg>
