<svg width="45" height="45" viewBox="0 0 45 45" fill="none" xmlns="http://www.w3.org/2000/svg">
<path d="M42.575 44.5661C43.1561 44.2509 43.6415 43.786 43.9802 43.2199C44.3188 42.6538 44.4984 42.0074 44.5 41.3485V20.2401C44.4998 19.7335 44.3938 19.2325 44.1886 18.7689C43.9835 18.3053 43.6837 17.8893 43.3083 17.5473L42.575 44.5661ZM42.575 44.5661C42.0421 44.8587 41.4418 45.0081 40.8333 44.9997L42.575 44.5661ZM42.6358 18.2874C42.9082 18.5358 43.1255 18.8376 43.2742 19.1736C43.423 19.5098 43.4998 19.873 43.5 20.2401C43.5 20.2402 43.5 20.2403 43.5 20.2404L43.5 41.346C43.5 41.3465 43.5 41.347 43.5 41.3474C43.4986 41.8257 43.3682 42.295 43.122 42.7065C42.8756 43.1183 42.5222 43.4572 42.0983 43.687L42.0938 43.6895C41.7126 43.8988 41.283 44.0058 40.8472 43.9998V43.9997H40.8333H29.8333C29.611 43.9997 29.3986 43.9117 29.2426 43.7564C29.0868 43.6012 29 43.3917 29 43.1741V32.2205C29 31.4698 28.7005 30.7506 28.1687 30.221C27.637 29.6916 26.9168 29.3949 26.1667 29.3949H18.8334C18.0833 29.3949 17.3631 29.6916 16.8314 30.221C16.2996 30.7506 16 31.4698 16 32.2205V43.1741C16 43.3917 15.9133 43.6012 15.7574 43.7564C15.6015 43.9117 15.3891 43.9997 15.1667 43.9997L4.16671 43.9997L4.16295 43.9997C3.78491 44.0011 3.41107 43.9219 3.0666 43.7675C2.72502 43.6145 2.42033 43.3911 2.17249 43.1125C1.73481 42.594 1.49674 41.9382 1.50005 41.2621V41.2572L1.50005 20.2404C1.50005 20.2403 1.50005 20.2402 1.50005 20.2401C1.50021 19.873 1.57706 19.5098 1.72585 19.1736L0.816917 18.7713L1.72585 19.1736C1.87448 18.8377 2.09172 18.536 2.36402 18.2876C2.3644 18.2873 2.36478 18.2869 2.36515 18.2866L20.696 1.69876L20.6985 1.69651C21.1898 1.24887 21.8325 1 22.5 1C23.1676 1 23.8102 1.24887 24.3016 1.69652L24.304 1.69876L42.6349 18.2866C42.6352 18.2869 42.6355 18.2871 42.6358 18.2874Z" stroke="white" stroke-width="2"/>
</svg>
