<svg width="317" height="71" viewBox="0 0 317 71" fill="none" xmlns="http://www.w3.org/2000/svg">
<g clip-path="url(#clip0_200_9150)">
<path d="M307.033 30.3883C307.033 29.8203 306.878 29.3347 306.567 28.9149C306.257 28.5033 305.849 28.2975 305.343 28.2975H304.307V27.2603H305.4C305.882 27.2603 306.249 27.1122 306.502 26.8241C306.755 26.536 306.878 26.1656 306.878 25.7128C306.878 25.2683 306.657 24.8815 306.2 24.5604C305.751 24.2312 305.262 24.0748 304.731 24.0748V22.9965C305.604 22.9965 306.396 23.2681 307.122 23.8032C307.841 24.3382 308.2 24.9885 308.208 25.7458C308.208 26.2232 308.102 26.6101 307.898 26.9229C307.686 27.2357 307.302 27.5073 306.755 27.7542C307.4 28.0753 307.824 28.4621 308.045 28.9066C308.265 29.3511 308.371 29.7709 308.371 30.166V31.1785C308.371 31.6642 308.249 32.191 308.004 32.7425C307.751 33.294 307.367 33.722 306.837 34.0183C306.314 34.3064 305.71 34.4546 305.033 34.4546C304.347 34.4546 303.735 34.3064 303.213 34.0183C302.683 33.722 302.299 33.3187 302.054 32.8166C301.809 32.3144 301.687 31.73 301.687 31.0797C301.687 30.4788 301.875 29.8121 302.25 29.0795L303.458 29.6804C303.164 30.166 303.017 30.7669 303.017 31.4831C303.017 32.0099 303.221 32.4544 303.637 32.8166C304.046 33.187 304.511 33.3681 305.025 33.3681C305.523 33.3681 305.939 33.2446 306.274 32.9976C306.6 32.7507 306.812 32.4708 306.902 32.1334C306.992 31.7959 307.033 31.4995 307.033 31.2444V30.3883ZM297.035 30.0096C297.541 30.0096 298.006 29.7874 298.422 29.3429C298.838 28.8984 299.042 28.1493 299.042 27.104C299.042 26.0915 298.838 25.3671 298.43 24.9226C298.022 24.4781 297.557 24.2559 297.035 24.2559C296.512 24.2559 296.031 24.4781 295.606 24.9226C295.182 25.3671 294.962 26.0997 294.962 27.104C294.962 28.1576 295.182 28.8984 295.615 29.3429C296.047 29.7874 296.529 30.0096 297.035 30.0096ZM299.597 19.6134V20.7164H296.276C295.762 20.7164 295.411 20.8069 295.231 20.988C295.051 21.1691 294.962 21.4901 294.962 21.9593V24.2147C295.639 23.5151 296.333 23.1693 297.043 23.1693C297.753 23.1693 298.357 23.3257 298.855 23.6468C299.361 23.9596 299.736 24.4123 299.989 24.9885C300.242 25.5647 300.373 26.2643 300.373 27.0793C300.373 27.9436 300.234 28.6762 299.948 29.2688C299.663 29.8615 299.255 30.3142 298.716 30.6352C298.177 30.948 297.622 31.1044 297.043 31.1044C296.455 31.1044 295.892 30.948 295.353 30.6352C294.815 30.3142 294.407 29.8615 294.121 29.2688C293.844 28.6762 293.697 27.9518 293.697 27.0793V21.9593C293.697 21.1279 293.925 20.5353 294.39 20.1649C294.847 19.7945 295.582 19.6134 296.594 19.6134H299.597ZM292.032 27.7542C292.024 28.5856 291.722 29.3429 291.126 30.0508C290.53 30.7587 289.706 31.1044 288.661 31.1044C287.706 31.1044 286.914 30.7505 286.286 30.0508C285.649 29.3429 285.339 28.5115 285.339 27.5402C285.339 26.8159 285.584 26.075 286.066 25.3177L287.224 25.861C286.865 26.5771 286.686 27.1369 286.686 27.5402C286.686 28.4292 286.898 29.063 287.314 29.4499C287.731 29.8286 288.179 30.0261 288.669 30.0343C289.142 30.0261 289.575 29.8697 289.959 29.5651C290.342 29.2524 290.587 28.6515 290.677 27.7625C290.677 26.5607 290.138 25.5976 289.036 24.865C287.943 24.1324 287.396 23.2434 287.396 22.2227H288.669C288.677 23.0376 289.24 23.8278 290.35 24.5851C291.477 25.3342 292.032 26.3878 292.032 27.7542ZM280.556 30.0096C281.063 30.0096 281.52 29.7874 281.936 29.3429C282.352 28.8984 282.564 28.1411 282.564 27.0628C282.564 26.075 282.36 25.3589 281.952 24.9144C281.544 24.4699 281.079 24.2476 280.556 24.2476C280.026 24.2476 279.561 24.4699 279.161 24.9144C278.761 25.3589 278.549 26.075 278.549 27.0628C278.549 28.1411 278.753 28.8984 279.169 29.3429C279.585 29.7874 280.042 30.0096 280.556 30.0096ZM280.556 31.0962C279.969 31.0962 279.406 30.9398 278.867 30.627C278.328 30.306 277.92 29.8532 277.635 29.2606C277.349 28.6679 277.21 27.9271 277.21 27.0381C277.21 26.2479 277.341 25.5647 277.594 24.9885C277.855 24.4123 278.206 23.976 278.647 23.6961C279.096 23.4163 279.577 23.2434 280.091 23.1858L280.206 22.338C280.279 21.984 280.034 21.6383 279.463 21.2843C278.892 20.9386 278.606 20.3624 278.606 19.5393H280.034C280.026 19.9591 280.254 20.3624 280.736 20.7411C281.218 21.1197 281.422 21.6054 281.373 22.1816L281.185 23.2105C281.626 23.2846 282.058 23.4492 282.483 23.7126C282.907 23.976 283.242 24.404 283.503 24.9802C283.756 25.5564 283.886 26.2479 283.886 27.0299C283.886 27.9271 283.748 28.6597 283.462 29.2524C283.176 29.845 282.768 30.2977 282.23 30.6188C281.699 30.9398 281.136 31.0962 280.556 31.0962ZM268.281 30.9233C269.236 29.3758 269.718 27.9929 269.718 26.7582C269.718 25.9186 269.514 25.2519 269.114 24.7662C268.706 24.2806 268.241 24.0419 267.718 24.0419C267.188 24.0419 266.723 24.2806 266.315 24.7662C265.915 25.2519 265.711 25.9104 265.711 26.7582C265.711 27.9929 266.208 29.3758 267.212 30.9233H265.711C264.821 29.1371 264.38 27.7542 264.38 26.7665C264.38 26.1738 264.511 25.5647 264.764 24.9473C265.017 24.33 265.4 23.8443 265.898 23.5068C266.404 23.1611 267.008 22.9882 267.718 22.9882C268.428 22.9882 269.032 23.1611 269.538 23.5068C270.036 23.8525 270.42 24.33 270.673 24.9473C270.926 25.5647 271.056 26.182 271.056 26.7665C271.056 27.7542 270.608 29.1371 269.726 30.9233H268.281ZM249.591 31.8123C250.163 31.7053 250.767 31.6395 251.403 31.623C249.591 30.1496 248.686 28.5033 248.686 26.6924C248.686 26.0503 248.816 25.4412 249.069 24.8732C249.322 24.297 249.706 23.8443 250.204 23.4986C250.71 23.1611 251.265 22.9882 251.877 22.9882C252.742 22.9882 253.411 23.3587 253.884 24.0995C254.35 23.3093 254.978 22.9142 255.762 22.9142C256.594 22.9142 257.247 23.3093 257.72 24.0995C258.112 23.3587 258.79 22.9882 259.728 22.9882C260.34 22.9882 260.895 23.1611 261.401 23.4986C261.899 23.8443 262.283 24.2888 262.536 24.8321C262.797 25.3836 262.919 26.0009 262.919 26.6924C262.919 27.7789 262.381 28.9313 261.295 30.1496H259.353C260.838 29.0219 261.581 27.8695 261.581 26.6841C261.581 25.7458 261.377 25.0626 260.977 24.6428C260.577 24.223 260.161 24.0172 259.72 24.0172C258.798 24.0172 258.333 24.6428 258.333 25.8857V27.9189H257.002V25.8857C257.002 24.5934 256.586 23.9431 255.745 23.9431C254.913 23.9431 254.488 24.5934 254.488 25.8857V27.9189H253.158V25.8857C253.158 24.6428 252.726 24.0172 251.86 24.0172C251.428 24.0172 251.012 24.2394 250.603 24.6839C250.204 25.1284 250 25.7952 250 26.6841C250.008 28.4457 251.126 30.0096 253.346 31.3843C255.198 31.4748 256.692 31.8288 257.818 32.4461C258.945 33.0635 259.565 33.7056 259.663 34.3723H257.933C257.892 33.8537 257.443 33.4175 256.594 33.0717C255.745 32.726 254.79 32.5532 253.729 32.5532C252.375 32.5532 250.987 32.7178 249.559 33.047V31.8123H249.591ZM247.167 30.2484C247.167 31.4501 247.045 32.3062 246.8 32.8083C246.555 33.3104 246.172 33.7056 245.641 34.0019C245.111 34.2982 244.515 34.4464 243.838 34.4464C243.152 34.4381 242.548 34.2982 242.018 34.0019C241.495 33.7056 241.103 33.3104 240.859 32.8083C240.614 32.3062 240.491 31.7218 240.491 31.0633C240.491 30.4212 240.769 29.6886 241.324 28.8819L242.434 29.4993C242.026 30.092 241.822 30.7505 241.822 31.4666C241.822 31.9934 242.026 32.4544 242.442 32.833C242.858 33.2117 243.323 33.401 243.829 33.401C244.335 33.401 244.76 33.2693 245.111 33.0141C245.462 32.7589 245.682 32.4544 245.772 32.1004C245.862 31.7465 245.902 31.1456 245.902 30.2813V25.079C245.902 24.6675 245.804 24.3958 245.592 24.2476C245.388 24.0995 245.168 24.0254 244.948 24.0254C244.719 24.0254 244.507 24.0995 244.303 24.2476C244.099 24.3958 244.001 24.5851 244.001 24.8321V27.071H242.736V24.8321C242.736 24.6098 242.662 24.437 242.507 24.3053C242.352 24.1736 242.189 24.1077 242.018 24.1077H241.267C240.81 24.1077 240.32 23.9349 239.814 23.6056L240.336 22.5684C240.834 22.9059 241.218 23.0788 241.487 23.0788H242.026C242.621 23.0788 243.087 23.3751 243.421 23.9842C243.829 23.334 244.327 23.0047 244.931 23.0047C245.551 23.0047 246.082 23.1693 246.515 23.5068C246.947 23.8443 247.167 24.3547 247.167 25.0626V30.2484ZM235.684 30.0096C236.19 30.0096 236.655 29.7874 237.072 29.3429C237.488 28.8984 237.692 28.1493 237.692 27.104C237.692 26.0915 237.488 25.3671 237.08 24.9226C236.672 24.4781 236.206 24.2559 235.684 24.2559C235.162 24.2559 234.68 24.4781 234.256 24.9226C233.823 25.3671 233.611 26.0997 233.611 27.104C233.611 28.1576 233.831 28.8984 234.264 29.3429C234.697 29.7874 235.178 30.0096 235.684 30.0096ZM238.247 19.6134V20.7164H234.925C234.411 20.7164 234.06 20.8069 233.872 20.988C233.693 21.1691 233.603 21.4901 233.603 21.9593V24.2147C234.28 23.5151 234.974 23.1693 235.684 23.1693C236.386 23.1693 236.998 23.3257 237.496 23.6468C237.994 23.9596 238.377 24.4123 238.63 24.9885C238.883 25.5647 239.014 26.2643 239.014 27.0793C239.014 27.9436 238.875 28.6762 238.59 29.2688C238.304 29.8615 237.896 30.3142 237.357 30.6352C236.819 30.948 236.264 31.1044 235.684 31.1044C235.096 31.1044 234.533 30.948 233.995 30.6352C233.456 30.3142 233.048 29.8615 232.762 29.2688C232.485 28.6762 232.338 27.9518 232.338 27.0793V21.9593C232.338 21.1279 232.566 20.5353 233.032 20.1649C233.489 19.7945 234.223 19.6134 235.235 19.6134H238.247ZM230.461 25.8116C230.461 26.6841 229.922 27.4414 228.845 28.0753C230.02 28.8326 230.608 29.6639 230.608 30.5611V31.6559C230.608 31.9605 230.485 32.3556 230.24 32.8413C229.996 33.3269 229.636 33.7138 229.147 34.0019C228.657 34.29 228.078 34.4381 227.4 34.4381C226.617 34.4299 225.964 34.29 225.433 33.9937C224.903 33.6973 224.519 33.3022 224.274 32.8001C224.029 32.298 223.907 31.7135 223.907 31.055C223.907 30.4541 224.127 29.8368 224.552 29.203L225.743 29.845C225.409 30.199 225.237 30.7422 225.237 31.4584C225.237 31.9852 225.45 32.4379 225.866 32.8001C226.282 33.1623 226.796 33.3434 227.4 33.3434C227.906 33.3434 228.339 33.1705 228.714 32.8248C229.081 32.4791 229.269 32.0593 229.269 31.5654V30.627C229.269 30.0261 229.106 29.5405 228.788 29.17C228.469 28.7996 228.143 28.6185 227.825 28.6185H227V27.532H227.825C228.127 27.532 228.42 27.3591 228.698 27.0216C228.983 26.6759 229.122 26.2726 229.122 25.8034C229.122 25.2766 228.959 24.8485 228.633 24.5193C228.306 24.1818 227.857 24.0172 227.294 24.0172C226.788 24.0172 226.388 24.1736 226.078 24.4864C225.768 24.7992 225.621 25.1613 225.621 25.5564C225.621 25.9433 225.694 26.2643 225.833 26.5195L224.707 26.9969C224.446 26.5689 224.323 26.0833 224.323 25.54C224.323 24.8156 224.617 24.2147 225.213 23.7208C225.809 23.2352 226.511 22.9882 227.31 22.9882C228.29 22.9882 229.057 23.2681 229.62 23.8114C230.183 24.3629 230.461 25.0296 230.461 25.8116ZM216.553 25.8939C216.553 24.6757 216.121 24.0666 215.256 24.0666C214.725 24.0666 214.26 24.3053 213.86 24.7827C213.452 25.2601 213.256 25.9927 213.256 26.9805C213.256 28.3634 214.113 29.6804 215.843 30.9316H214.048C212.628 29.5816 211.918 28.2728 211.918 26.9887C211.918 26.2479 212.048 25.5647 212.301 24.9473C212.562 24.33 212.938 23.8443 213.436 23.5068C213.934 23.1693 214.521 22.9965 215.182 22.9965C215.998 22.9965 216.692 23.408 217.263 24.2559C217.761 23.4163 218.455 22.9965 219.345 22.9965C220.006 22.9965 220.585 23.1693 221.091 23.5068C221.589 23.8525 221.973 24.33 222.226 24.9473C222.479 25.5647 222.609 26.2479 222.609 26.9887C222.609 28.2728 221.899 29.5898 220.479 30.9316H218.757C220.43 29.6722 221.279 28.3634 221.279 26.9805C221.279 25.9927 221.075 25.2601 220.675 24.7827C220.267 24.3053 219.802 24.0666 219.271 24.0666C218.349 24.0666 217.884 24.6757 217.884 25.8939V27.9271H216.553V25.8939ZM204.417 25.8939C204.417 24.6592 203.985 24.0419 203.119 24.0419C202.589 24.0419 202.124 24.2888 201.716 24.7745C201.316 25.2601 201.112 25.9927 201.112 26.9887C201.112 28.3716 202.001 29.6886 203.772 30.9398H201.912C200.491 29.5898 199.781 28.281 199.781 26.9969C199.781 24.8156 200.467 23.0376 201.838 21.6712C203.209 20.3048 204.956 19.6134 207.053 19.6134V20.6999C206.417 20.6999 205.56 20.8481 204.491 21.1526C203.421 21.4572 202.458 22.2556 201.618 23.5397C202.173 23.1776 202.654 22.9965 203.054 22.9965C203.854 22.9965 204.548 23.4657 205.135 24.404C205.625 23.4657 206.319 22.9965 207.217 22.9965C207.878 22.9965 208.457 23.1693 208.963 23.5068C209.469 23.8525 209.845 24.33 210.098 24.9473C210.351 25.5647 210.481 26.2479 210.481 26.9887C210.481 28.2728 209.771 29.5898 208.351 30.9316H206.555C208.286 29.6722 209.151 28.3634 209.151 26.9805C209.151 25.9927 208.955 25.2601 208.547 24.7662C208.139 24.2806 207.674 24.0336 207.151 24.0336C206.229 24.0336 205.764 24.651 205.764 25.8857V27.9189H204.433V25.8939H204.417ZM198.263 30.2813C198.263 31.4666 198.149 32.3062 197.896 32.8083C197.651 33.3104 197.268 33.7138 196.737 34.0019C196.207 34.2982 195.627 34.4464 195.007 34.4464C194.37 34.4464 193.783 34.2982 193.26 34.0019C192.73 33.7138 192.346 33.3104 192.101 32.8083C191.856 32.3062 191.734 31.7218 191.734 31.0715C191.726 30.3636 191.946 29.7051 192.379 29.0713L193.481 29.6639C193.203 30.1496 193.073 30.7505 193.073 31.4748C193.073 32.0099 193.277 32.4544 193.693 32.8166C194.109 33.1787 194.55 33.3598 195.015 33.3598C195.464 33.3598 195.872 33.2364 196.223 32.9894C196.574 32.7425 196.794 32.4461 196.884 32.0922C196.974 31.7382 197.015 31.1373 197.006 30.2813V25.6388C197.006 25.1531 196.802 24.7662 196.394 24.4617C195.986 24.1653 195.578 24.0089 195.17 24.0089C194.664 24.0089 194.24 24.1736 193.921 24.5111C193.603 24.8485 193.44 25.219 193.44 25.6223C193.44 26.1244 193.57 26.536 193.823 26.8652L192.689 27.4579C192.322 26.8405 192.134 26.2397 192.134 25.6635C192.134 24.9226 192.436 24.2888 193.04 23.7702C193.644 23.2434 194.362 22.98 195.203 22.98C196.092 22.98 196.827 23.2516 197.398 23.7949C197.969 24.3382 198.255 24.9556 198.263 25.6635V30.2813ZM183.874 22.6261C183.874 23.7044 184.185 24.4699 184.789 24.9309C185.401 25.3918 185.703 26.075 185.703 26.9887C185.703 27.7872 185.564 28.5033 185.278 29.1371C184.993 29.7709 184.585 30.2566 184.046 30.6023C183.507 30.9398 182.944 31.1044 182.356 31.1044C181.777 31.1044 181.214 30.9316 180.675 30.6023C180.136 30.2648 179.728 29.7792 179.443 29.1371C179.157 28.5033 179.018 27.7872 179.018 26.9887V19.6381H180.283V26.9887C180.283 28.0259 180.504 28.7914 180.936 29.2853C181.377 29.7874 181.842 30.0261 182.356 30.0261C182.862 30.0261 183.328 29.7792 183.744 29.2853C184.152 28.7914 184.364 28.0259 184.364 26.9887C184.364 26.2973 184.062 25.6799 183.458 25.1531C182.854 24.6181 182.552 23.7867 182.544 22.6343H183.874V22.6261ZM171.314 25.8939C171.314 24.6757 170.881 24.0666 170.016 24.0666C169.486 24.0666 169.02 24.3053 168.612 24.7827C168.212 25.2601 168.008 25.9927 168.008 26.9805C168.008 28.3634 168.873 29.6804 170.596 30.9316H168.8C167.38 29.5816 166.67 28.2728 166.67 26.9887C166.67 26.2479 166.8 25.5647 167.053 24.9473C167.306 24.33 167.69 23.8443 168.188 23.5068C168.694 23.1693 169.273 22.9965 169.934 22.9965C170.751 22.9965 171.444 23.408 172.016 24.2559C172.505 23.4163 173.199 22.9965 174.097 22.9965C174.758 22.9965 175.337 23.1693 175.843 23.5068C176.349 23.8525 176.725 24.33 176.978 24.9473C177.231 25.5647 177.361 26.2479 177.361 26.9887C177.361 28.2728 176.651 29.5898 175.231 30.9316H173.509C175.191 29.6722 176.031 28.3634 176.031 26.9805C176.031 25.9927 175.835 25.2601 175.427 24.7827C175.019 24.3053 174.554 24.0666 174.032 24.0666C173.109 24.0666 172.644 24.6757 172.644 25.8939V27.9271H171.314V25.8939ZM151.889 31.8123C152.461 31.7053 153.064 31.6395 153.701 31.623C151.889 30.1496 150.983 28.5033 150.983 26.6924C150.983 26.0503 151.114 25.4412 151.367 24.8732C151.62 24.297 152.003 23.8443 152.501 23.4986C153.007 23.1611 153.562 22.9882 154.174 22.9882C155.04 22.9882 155.709 23.3587 156.182 24.0995C156.656 23.3093 157.276 22.9142 158.059 22.9142C158.892 22.9142 159.545 23.3093 160.018 24.0995C160.418 23.3587 161.087 22.9882 162.026 22.9882C162.638 22.9882 163.193 23.1611 163.699 23.4986C164.205 23.8443 164.58 24.2888 164.833 24.8321C165.095 25.3836 165.217 26.0009 165.217 26.6924C165.217 27.7789 164.678 28.9313 163.593 30.1496H161.65C163.136 29.0219 163.879 27.8695 163.879 26.6841C163.879 25.7458 163.675 25.0626 163.275 24.6428C162.875 24.223 162.458 24.0172 162.018 24.0172C161.095 24.0172 160.63 24.6428 160.63 25.8857V27.9189H159.3V25.8857C159.3 24.5934 158.884 23.9431 158.043 23.9431C157.211 23.9431 156.786 24.5934 156.786 25.8857V27.9189H155.456V25.8857C155.456 24.6428 155.023 24.0172 154.158 24.0172C153.726 24.0172 153.309 24.2394 152.901 24.6839C152.501 25.1284 152.297 25.7952 152.297 26.6841C152.305 28.4457 153.424 30.0096 155.644 31.3843C157.496 31.4748 158.99 31.8288 160.116 32.4461C161.242 33.0635 161.863 33.7056 161.961 34.3723H160.23C160.19 33.8537 159.741 33.4175 158.892 33.0717C158.043 32.726 157.088 32.5532 156.027 32.5532C154.672 32.5532 153.285 32.7178 151.857 33.047V31.8123H151.889ZM149.473 30.2813C149.473 31.4666 149.351 32.3062 149.106 32.8083C148.861 33.3104 148.478 33.7138 147.947 34.0019C147.417 34.2982 146.837 34.4464 146.217 34.4464C145.572 34.4464 144.993 34.2982 144.47 34.0019C143.94 33.7138 143.556 33.3104 143.311 32.8083C143.067 32.3062 142.944 31.7218 142.944 31.0715C142.944 30.3636 143.156 29.7051 143.589 29.0713L144.691 29.6639C144.413 30.1496 144.274 30.7505 144.274 31.4748C144.274 32.0099 144.478 32.4544 144.895 32.8166C145.311 33.1787 145.752 33.3598 146.217 33.3598C146.666 33.3598 147.074 33.2364 147.425 32.9894C147.776 32.7425 147.996 32.4461 148.086 32.0922C148.176 31.7382 148.216 31.1373 148.208 30.2813V25.6388C148.208 25.1531 148.004 24.7662 147.596 24.4617C147.188 24.1653 146.78 24.0089 146.372 24.0089C145.866 24.0089 145.442 24.1736 145.123 24.5111C144.805 24.8485 144.642 25.219 144.642 25.6223C144.642 26.1244 144.772 26.536 145.025 26.8652L143.899 27.4579C143.524 26.8405 143.336 26.2397 143.336 25.6635C143.336 24.9226 143.638 24.2888 144.242 23.7702C144.846 23.2434 145.564 22.98 146.405 22.98C147.294 22.98 148.029 23.2516 148.6 23.7949C149.171 24.3382 149.457 24.9556 149.465 25.6635V30.2813H149.473ZM141.41 25.8116C141.41 26.6841 140.871 27.4414 139.794 28.0753C140.961 28.8326 141.548 29.6639 141.548 30.5611V31.6559C141.548 31.9605 141.434 32.3556 141.189 32.8413C140.945 33.3269 140.585 33.7138 140.096 34.0019C139.606 34.29 139.027 34.4381 138.349 34.4381C137.566 34.4299 136.913 34.29 136.382 33.9937C135.86 33.6973 135.468 33.3022 135.223 32.8001C134.978 32.298 134.856 31.7135 134.856 31.055C134.856 30.4541 135.076 29.8368 135.501 29.203L136.692 29.845C136.358 30.199 136.194 30.7422 136.194 31.4584C136.194 31.9852 136.399 32.4379 136.815 32.8001C137.231 33.1623 137.745 33.3434 138.349 33.3434C138.855 33.3434 139.288 33.1705 139.655 32.8248C140.03 32.4791 140.21 32.0593 140.21 31.5654V30.627C140.21 30.0261 140.047 29.5405 139.728 29.17C139.402 28.7996 139.084 28.6185 138.765 28.6185H137.941V27.532H138.765C139.067 27.532 139.361 27.3591 139.647 27.0216C139.933 26.6759 140.071 26.2726 140.071 25.8034C140.071 25.2766 139.908 24.8485 139.582 24.5193C139.255 24.1818 138.806 24.0172 138.251 24.0172C137.745 24.0172 137.345 24.1736 137.035 24.4864C136.725 24.7992 136.578 25.1613 136.578 25.5564C136.578 25.9433 136.643 26.2643 136.79 26.5195L135.656 26.9969C135.403 26.5689 135.272 26.0833 135.272 25.54C135.272 24.8156 135.574 24.2147 136.17 23.7208C136.766 23.2352 137.468 22.9882 138.268 22.9882C139.247 22.9882 140.014 23.2681 140.577 23.8114C141.132 24.3629 141.41 25.0296 141.41 25.8116ZM126.123 30.0179C126.629 30.0179 127.094 29.7709 127.511 29.277C127.919 28.7832 128.131 28.0176 128.131 26.9805C128.131 25.9927 127.927 25.2519 127.527 24.758C127.119 24.2641 126.654 24.0172 126.131 24.0172C125.601 24.0172 125.136 24.2641 124.727 24.758C124.328 25.2519 124.124 25.9927 124.124 26.9805C124.124 28.0176 124.328 28.7832 124.744 29.277C125.152 29.7709 125.617 30.0179 126.123 30.0179ZM130.139 30.9233C131.534 29.5734 132.228 28.1823 132.228 26.7582C132.228 25.9186 132.032 25.2519 131.624 24.758C131.224 24.2641 130.751 24.0172 130.22 24.0172C129.69 24.0172 129.257 24.2147 128.923 24.6263C129.282 25.3589 129.461 26.1491 129.461 26.9805C129.461 27.7789 129.314 28.4951 129.037 29.1289C128.759 29.7627 128.343 30.2484 127.804 30.5941C127.266 30.9316 126.703 31.0962 126.123 31.0962C125.544 31.0962 124.98 30.9233 124.442 30.5941C123.903 30.2566 123.487 29.7709 123.201 29.1289C122.916 28.4951 122.777 27.7789 122.777 26.9805C122.777 26.2397 122.907 25.5564 123.16 24.9391C123.422 24.3217 123.797 23.8361 124.295 23.4986C124.801 23.1611 125.405 22.9882 126.115 22.9882C126.931 22.9882 127.617 23.2187 128.155 23.6797C128.718 23.227 129.404 22.9882 130.212 22.9882C130.922 22.9882 131.526 23.1611 132.032 23.4986C132.538 23.8443 132.914 24.3217 133.167 24.9391C133.428 25.5564 133.55 26.1738 133.55 26.7582C133.55 28.2317 132.995 29.6228 131.885 30.9151H130.139V30.9233ZM115.285 25.8939C115.285 24.6592 114.852 24.0419 113.987 24.0419C113.456 24.0419 112.991 24.2888 112.583 24.7745C112.175 25.2601 111.979 25.9927 111.979 26.9887C111.979 28.3716 112.861 29.6886 114.632 30.9398H112.771C111.351 29.5898 110.641 28.281 110.641 26.9969C110.632 24.8156 111.318 23.0376 112.697 21.6712C114.077 20.3048 115.815 19.6134 117.913 19.6134V20.6999C117.276 20.6999 116.427 20.8481 115.35 21.1526C114.281 21.4572 113.326 22.2556 112.477 23.5397C113.032 23.1776 113.513 22.9965 113.913 22.9965C114.713 22.9965 115.407 23.4657 115.995 24.404C116.492 23.4657 117.186 22.9965 118.076 22.9965C118.737 22.9965 119.316 23.1693 119.822 23.5068C120.32 23.8525 120.704 24.33 120.957 24.9473C121.21 25.5647 121.34 26.2479 121.34 26.9887C121.34 28.2728 120.63 29.5898 119.21 30.9316H117.415C119.145 29.6722 120.01 28.3634 120.01 26.9805C120.01 25.9927 119.806 25.2601 119.406 24.7662C118.998 24.2806 118.533 24.0336 118.002 24.0336C117.08 24.0336 116.615 24.651 116.615 25.8857V27.9189H115.285V25.8939ZM109.196 27.7542C109.196 28.5856 108.886 29.3429 108.298 30.0508C107.702 30.7587 106.878 31.1044 105.833 31.1044C104.887 31.1044 104.095 30.7505 103.458 30.0508C102.83 29.3429 102.512 28.5115 102.52 27.5402C102.52 26.8159 102.765 26.075 103.246 25.3177L104.405 25.861C104.046 26.5771 103.866 27.1369 103.866 27.5402C103.875 28.4292 104.087 29.063 104.495 29.4499C104.911 29.8286 105.36 30.0261 105.85 30.0343C106.323 30.0261 106.756 29.8697 107.139 29.5651C107.523 29.2524 107.768 28.6515 107.857 27.7625C107.866 26.5607 107.319 25.5976 106.225 24.865C105.132 24.1324 104.577 23.2434 104.577 22.2227H105.85C105.858 23.0376 106.421 23.8278 107.531 24.5851C108.641 25.3342 109.196 26.3878 109.196 27.7542ZM99.5817 25.6223C99.5817 25.1449 99.3613 24.7498 98.9042 24.4534C98.4554 24.1571 97.9983 24.0089 97.5494 24.0089C96.9863 24.0089 96.5619 24.1571 96.2844 24.4617C96.0069 24.7662 95.8763 25.1284 95.8763 25.5482C95.8763 25.9022 95.9742 26.2808 96.1864 26.6841L95.0357 27.3015C94.7255 26.6924 94.5705 26.1244 94.5705 25.5811C94.5705 24.7827 94.8561 24.1489 95.4437 23.6797C96.0232 23.2105 96.7333 22.98 97.5657 22.98C98.1779 22.98 98.8553 23.194 99.5817 23.6138V19.6051H100.847V30.2484C100.847 31.4584 100.724 32.3062 100.479 32.8166C100.235 33.3187 99.851 33.722 99.3205 34.0101C98.7981 34.3064 98.1942 34.4546 97.5168 34.4546C96.8312 34.4546 96.2272 34.3064 95.6967 34.0101C95.1662 33.722 94.7827 33.3187 94.5378 32.8166C94.293 32.3144 94.1705 31.73 94.1705 31.0797C94.1705 30.4788 94.3746 29.8121 94.7826 29.0795L96.0314 29.5981C95.6804 30.1331 95.509 30.7587 95.509 31.4831C95.509 32.0181 95.7131 32.4708 96.1293 32.8413C96.5456 33.2117 97.0108 33.401 97.5168 33.401C98.0228 33.401 98.4472 33.2693 98.7981 33.0141C99.1491 32.7589 99.3695 32.4544 99.4674 32.1004C99.5572 31.7465 99.598 31.1456 99.598 30.2895L99.5817 25.6223ZM92.7178 27.7542C92.7096 28.5856 92.4076 29.3429 91.8118 30.0508C91.2079 30.7587 90.3917 31.1044 89.347 31.1044C88.3921 31.1044 87.6005 30.7505 86.972 30.0508C86.3436 29.3429 86.0253 28.5115 86.0334 27.5402C86.0334 26.8159 86.2783 26.075 86.7598 25.3177L87.9188 25.861C87.5597 26.5771 87.3801 27.1369 87.3801 27.5402C87.3801 28.4292 87.5923 29.063 88.0085 29.4499C88.4248 29.8286 88.8737 30.0261 89.3715 30.0343C89.8449 30.0261 90.2775 29.8697 90.6611 29.5651C91.0446 29.2524 91.2813 28.6515 91.3793 27.7625C91.3874 26.5607 90.8406 25.5976 89.747 24.865C88.6533 24.1324 88.0983 23.2434 88.0983 22.2227H89.3715C89.3715 23.0376 89.9347 23.8278 91.0446 24.5851C92.1546 25.3342 92.7178 26.3878 92.7178 27.7542ZM82.7362 22.6261C82.7362 23.7044 83.0463 24.4699 83.6584 24.9309C84.2705 25.3918 84.5725 26.075 84.5725 26.9887C84.5725 27.7872 84.4338 28.5033 84.1481 29.1371C83.8625 29.7709 83.4544 30.2566 82.9157 30.6023C82.3771 30.9398 81.8139 31.1044 81.2344 31.1044C80.655 31.1044 80.0918 30.9316 79.545 30.6023C79.0063 30.2648 78.5982 29.7792 78.3126 29.1371C78.0351 28.5033 77.8882 27.7872 77.8882 26.9887V19.6381H79.1451V26.9887C79.1451 28.0259 79.3654 28.7914 79.8062 29.2853C80.2387 29.7874 80.7121 30.0261 81.2263 30.0261C81.7323 30.0261 82.1975 29.7792 82.6137 29.2853C83.0218 28.7914 83.234 28.0259 83.234 26.9887C83.234 26.2973 82.932 25.6799 82.3281 25.1531C81.7241 24.6181 81.4221 23.7867 81.414 22.6343H82.7362V22.6261Z" fill="#080537"/>
<path d="M313.733 30.9233C314.688 29.3758 315.17 27.993 315.17 26.7582C315.17 25.9186 314.966 25.2519 314.566 24.7662C314.158 24.2806 313.692 24.0419 313.17 24.0419C312.64 24.0419 312.174 24.2806 311.766 24.7662C311.366 25.2519 311.162 25.9104 311.162 26.7582C311.162 27.993 311.66 29.3758 312.664 30.9233H311.162C310.273 29.1371 309.832 27.7542 309.832 26.7665C309.832 26.1738 309.963 25.5647 310.216 24.9473C310.469 24.33 310.852 23.8443 311.35 23.5068C311.856 23.1611 312.46 22.9883 313.17 22.9883C313.88 22.9883 314.484 23.1611 314.99 23.5068C315.488 23.8526 315.872 24.33 316.125 24.9473C316.378 25.5647 316.508 26.182 316.508 26.7665C316.508 27.7542 316.059 29.1371 315.178 30.9233H313.733Z" fill="#080537"/>
<path d="M261.54 43.6738V48.341H260.21V47.0981C259.908 47.6002 259.524 47.9624 259.075 48.2011C258.626 48.4398 258.071 48.555 257.41 48.555C256.578 48.555 255.917 48.3163 255.427 47.8471C254.937 47.3779 254.693 46.7441 254.693 45.9621C254.693 45.0402 255.003 44.3488 255.607 43.8796C256.219 43.4104 257.133 43.1799 258.341 43.1799H260.21V43.0482C260.21 42.4308 260.006 41.9452 259.606 41.6077C259.206 41.2702 258.635 41.0974 257.908 41.0974C257.443 41.0974 256.994 41.155 256.553 41.262C256.113 41.3772 255.696 41.5419 255.288 41.7641V40.5212C255.778 40.3318 256.251 40.1919 256.709 40.0931C257.166 40.0026 257.614 39.9532 258.047 39.9532C259.214 39.9532 260.096 40.2578 260.675 40.8751C261.246 41.4925 261.54 42.4226 261.54 43.6738ZM258.879 44.2253C257.802 44.2253 257.059 44.3488 256.643 44.5957C256.227 44.8427 256.015 45.2707 256.015 45.8716C256.015 46.349 256.17 46.7277 256.48 47.0075C256.79 47.2874 257.215 47.4273 257.753 47.4273C258.488 47.4273 259.084 47.1639 259.532 46.6289C259.973 46.1021 260.202 45.3942 260.202 44.5216V44.2253H258.879ZM251.069 36.9734H252.399V38.6773H251.069V36.9734ZM251.069 40.159H252.399V48.341H251.069V40.159ZM248.327 47.3203C248.327 48.7114 248.016 49.7486 247.404 50.4236C246.792 51.1068 245.854 51.4443 244.589 51.4443C244.123 51.4443 243.683 51.4113 243.266 51.3455C242.85 51.2714 242.45 51.1644 242.058 51.0162V49.7074C242.45 49.9214 242.834 50.0778 243.217 50.1766C243.601 50.2754 243.993 50.333 244.385 50.333C245.258 50.333 245.911 50.1025 246.343 49.6416C246.784 49.1806 246.996 48.4892 246.996 47.559V46.9005C246.719 47.3862 246.368 47.7401 245.935 47.9788C245.503 48.2175 244.988 48.341 244.393 48.341C243.405 48.341 242.597 47.9541 241.985 47.1968C241.373 46.4313 241.071 45.4189 241.071 44.1594C241.071 42.8918 241.373 41.8793 241.985 41.1138C242.589 40.3483 243.397 39.9697 244.393 39.9697C244.988 39.9697 245.503 40.0849 245.935 40.3236C246.368 40.5623 246.719 40.9245 246.996 41.4102V40.1672H248.327V47.3203ZM246.996 44.1512C246.996 43.1799 246.792 42.4226 246.4 41.8876C246.001 41.3525 245.446 41.0891 244.727 41.0891C244.009 41.0891 243.454 41.3525 243.054 41.8876C242.662 42.4226 242.458 43.1799 242.458 44.1512C242.458 45.1225 242.654 45.8716 243.054 46.4066C243.454 46.9417 244.009 47.2133 244.727 47.2133C245.446 47.2133 246.001 46.9417 246.4 46.4066C246.792 45.8716 246.996 45.1225 246.996 44.1512ZM240.255 41.4102C240.108 41.3196 239.936 41.262 239.765 41.2208C239.594 41.1797 239.398 41.155 239.186 41.155C238.435 41.155 237.855 41.4019 237.455 41.8958C237.047 42.3897 236.851 43.0976 236.851 44.0277V48.341H235.513V40.159H236.851V41.4348C237.129 40.9327 237.496 40.5705 237.945 40.3236C238.394 40.0849 238.941 39.9614 239.577 39.9614C239.667 39.9614 239.773 39.9697 239.879 39.9779C239.994 39.9943 240.116 40.0108 240.255 40.0355V41.4102ZM229.628 39.9614C230.787 39.9614 231.701 40.3401 232.354 41.0974C233.015 41.8547 233.35 42.9083 233.35 44.25C233.35 45.5917 233.015 46.6453 232.354 47.4026C231.693 48.1681 230.779 48.5468 229.628 48.5468C228.461 48.5468 227.555 48.1599 226.894 47.4026C226.233 46.6371 225.907 45.5917 225.907 44.25C225.907 42.9083 226.233 41.8547 226.894 41.0974C227.547 40.3401 228.461 39.9614 229.628 39.9614ZM229.628 41.0974C228.91 41.0974 228.347 41.3772 227.931 41.9452C227.515 42.5049 227.302 43.2787 227.302 44.25C227.302 45.2295 227.506 46.0033 227.923 46.563C228.339 47.1228 228.902 47.4026 229.62 47.4026C230.33 47.4026 230.893 47.1228 231.31 46.5548C231.726 45.9951 231.93 45.2213 231.93 44.25C231.93 43.2869 231.726 42.5214 231.31 41.9452C230.902 41.3855 230.33 41.0974 229.628 41.0974ZM222.96 43.5174C222.952 42.7766 222.748 42.1921 222.348 41.7559C221.948 41.3196 221.426 41.0974 220.765 41.0974C220.022 41.0974 219.426 41.3114 218.978 41.7312C218.529 42.151 218.276 42.7519 218.202 43.5174H222.96ZM224.299 43.9125V44.571H218.17C218.227 45.4929 218.504 46.2008 219.002 46.6865C219.5 47.1721 220.185 47.4109 221.067 47.4109C221.581 47.4109 222.079 47.3532 222.552 47.2215C223.034 47.0981 223.515 46.9087 223.981 46.6536V47.9212C223.499 48.127 223.018 48.2834 222.511 48.3904C222.005 48.4892 221.499 48.555 220.985 48.555C219.688 48.555 218.667 48.1764 217.908 47.4109C217.149 46.6536 216.774 45.6246 216.774 44.3323C216.774 42.9906 217.133 41.9287 217.851 41.1385C218.569 40.3483 219.533 39.9614 220.749 39.9614C221.842 39.9614 222.699 40.3154 223.336 41.0233C223.981 41.7312 224.299 42.6943 224.299 43.9125ZM213.289 46.7853V43.8549H210.898V42.6449H214.734V47.3285C214.17 47.7319 213.542 48.0364 212.865 48.2422C212.187 48.448 211.461 48.555 210.685 48.555C208.996 48.555 207.674 48.0529 206.719 47.0569C205.764 46.0609 205.291 44.678 205.291 42.9C205.291 41.1221 205.772 39.7227 206.719 38.7349C207.674 37.7389 208.996 37.2451 210.685 37.2451C211.387 37.2451 212.057 37.3356 212.693 37.5085C213.322 37.6813 213.909 37.9447 214.448 38.2822V39.8544C213.909 39.3852 213.33 39.0477 212.726 38.809C212.114 38.5785 211.477 38.4551 210.8 38.4551C209.477 38.4551 208.482 38.8337 207.821 39.5745C207.151 40.3236 206.825 41.4266 206.825 42.9083C206.825 44.3817 207.16 45.4847 207.821 46.2338C208.482 46.9828 209.477 47.3532 210.8 47.3532C211.314 47.3532 211.779 47.3121 212.187 47.2133C212.611 47.1145 212.971 46.9746 213.289 46.7853ZM200.034 36.9734V38.0929H198.761C198.288 38.0929 197.953 38.1917 197.766 38.3892C197.578 38.5868 197.488 38.9325 197.488 39.4428V40.1672H199.684V41.2126H197.488V48.3492H196.15V41.2126H194.876V40.1672H196.15V39.5992C196.15 38.6856 196.362 38.027 196.778 37.6072C197.202 37.1874 197.864 36.9816 198.778 36.9816H200.034V36.9734ZM189.996 39.9614C191.155 39.9614 192.069 40.3401 192.722 41.0974C193.383 41.8547 193.717 42.9083 193.717 44.25C193.717 45.5917 193.383 46.6453 192.722 47.4026C192.061 48.1681 191.155 48.5468 189.996 48.5468C188.829 48.5468 187.923 48.1599 187.262 47.4026C186.601 46.6371 186.274 45.5917 186.274 44.25C186.274 42.9083 186.601 41.8547 187.262 41.0974C187.923 40.3401 188.829 39.9614 189.996 39.9614ZM189.996 41.0974C189.278 41.0974 188.714 41.3772 188.298 41.9452C187.882 42.5049 187.678 43.2787 187.678 44.25C187.678 45.2295 187.882 46.0033 188.298 46.563C188.706 47.1228 189.278 47.4026 189.996 47.4026C190.706 47.4026 191.269 47.1228 191.685 46.5548C192.101 45.9951 192.305 45.2213 192.305 44.25C192.305 43.2869 192.101 42.5214 191.685 41.9452C191.269 41.3855 190.706 41.0974 189.996 41.0974ZM173.493 36.9734H174.832V43.6903L178.806 40.159H180.512L176.211 43.9866L180.692 48.341H178.953L174.832 44.3405V48.341H173.493V36.9734ZM170.89 43.4022V48.341H169.559V43.4433C169.559 42.6696 169.412 42.0934 169.11 41.7065C168.808 41.3196 168.368 41.1303 167.764 41.1303C167.045 41.1303 166.482 41.3608 166.066 41.8217C165.65 42.2827 165.438 42.9165 165.438 43.715V48.341H164.099V40.159H165.438V41.4348C165.756 40.941 166.131 40.5705 166.564 40.3318C166.996 40.0849 167.494 39.9697 168.057 39.9697C168.988 39.9697 169.698 40.2578 170.171 40.8422C170.645 41.4102 170.89 42.2662 170.89 43.4022ZM161.398 43.6738V48.341H160.067V47.0981C159.757 47.6002 159.382 47.9624 158.933 48.2011C158.476 48.4398 157.929 48.555 157.268 48.555C156.435 48.555 155.782 48.3163 155.285 47.8471C154.795 47.3779 154.55 46.7441 154.55 45.9621C154.55 45.0402 154.86 44.3488 155.464 43.8796C156.076 43.4104 156.99 43.1799 158.198 43.1799H160.067V43.0482C160.067 42.4308 159.863 41.9452 159.463 41.6077C159.063 41.2702 158.492 41.0974 157.766 41.0974C157.3 41.0974 156.852 41.155 156.411 41.262C155.97 41.3772 155.554 41.5419 155.146 41.7641V40.5212C155.636 40.3318 156.109 40.1919 156.566 40.0931C157.023 40.0026 157.472 39.9532 157.904 39.9532C159.072 39.9532 159.953 40.2578 160.532 40.8751C161.112 41.4925 161.398 42.4226 161.398 43.6738ZM158.745 44.2253C157.668 44.2253 156.925 44.3488 156.509 44.5957C156.093 44.8427 155.88 45.2707 155.88 45.8716C155.88 46.349 156.035 46.7277 156.346 47.0075C156.656 47.2874 157.08 47.4273 157.619 47.4273C158.353 47.4273 158.949 47.1639 159.398 46.6289C159.839 46.1021 160.067 45.3942 160.067 44.5216V44.2253H158.745ZM144.936 37.4344H148.674C149.784 37.4344 150.641 37.6649 151.253 38.134C151.857 38.6032 152.159 39.27 152.159 40.1261C152.159 40.7928 152.004 41.3196 151.693 41.7229C151.383 42.1181 150.934 42.365 150.33 42.4555C151.057 42.6119 151.612 42.933 152.012 43.4269C152.412 43.9207 152.608 44.5381 152.608 45.2789C152.608 46.2502 152.281 47.0075 151.62 47.5343C150.967 48.0611 150.029 48.3328 148.821 48.3328H144.936V37.4344ZM146.397 38.6444V41.9287H148.568C149.286 41.9287 149.808 41.797 150.159 41.5254C150.51 41.2538 150.681 40.8422 150.681 40.2907C150.681 39.7392 150.51 39.3276 150.159 39.056C149.808 38.7843 149.278 38.6444 148.568 38.6444H146.397ZM146.397 43.1305V47.131H148.747C149.531 47.131 150.118 46.9664 150.494 46.6371C150.877 46.3078 151.065 45.8057 151.065 45.1308C151.065 44.4475 150.877 43.9454 150.494 43.6244C150.118 43.3034 149.531 43.1388 148.747 43.1388H146.397V43.1305ZM136.04 36.9734H137.378V48.341H136.04V36.9734ZM133.297 43.6738V48.341H131.967V47.0981C131.665 47.6002 131.281 47.9624 130.832 48.2011C130.375 48.4398 129.82 48.555 129.168 48.555C128.335 48.555 127.674 48.3163 127.184 47.8471C126.695 47.3779 126.45 46.7441 126.45 45.9621C126.45 45.0402 126.76 44.3488 127.364 43.8796C127.976 43.4104 128.882 43.1799 130.098 43.1799H131.967V43.0482C131.967 42.4308 131.763 41.9452 131.363 41.6077C130.963 41.2702 130.392 41.0974 129.665 41.0974C129.2 41.0974 128.751 41.155 128.311 41.262C127.87 41.3772 127.454 41.5419 127.045 41.7641V40.5212C127.535 40.3318 128.009 40.1919 128.466 40.0931C128.923 40.0026 129.372 39.9532 129.804 39.9532C130.979 39.9532 131.853 40.2578 132.432 40.8751C133.012 41.4925 133.297 42.4226 133.297 43.6738ZM130.645 44.2253C129.567 44.2253 128.817 44.3488 128.4 44.5957C127.984 44.8427 127.78 45.2707 127.78 45.8716C127.78 46.349 127.935 46.7277 128.245 47.0075C128.555 47.2874 128.98 47.4273 129.518 47.4273C130.253 47.4273 130.849 47.1639 131.298 46.6289C131.747 46.1021 131.967 45.3942 131.967 44.5216V44.2253H130.645ZM124.295 43.4022V48.341H122.965V43.4433C122.965 42.6696 122.818 42.0934 122.516 41.7065C122.214 41.3196 121.773 41.1303 121.169 41.1303C120.451 41.1303 119.88 41.3608 119.463 41.8217C119.047 42.2827 118.843 42.9165 118.843 43.715V48.341H117.496V40.159H118.843V41.4348C119.161 40.941 119.537 40.5705 119.969 40.3318C120.402 40.0849 120.9 39.9697 121.471 39.9697C122.402 39.9697 123.112 40.2578 123.585 40.8422C124.058 41.4102 124.295 42.2662 124.295 43.4022ZM111.62 39.9614C112.779 39.9614 113.685 40.3401 114.346 41.0974C115.007 41.8547 115.334 42.9083 115.334 44.25C115.334 45.5917 114.999 46.6453 114.346 47.4026C113.685 48.1681 112.771 48.5468 111.62 48.5468C110.453 48.5468 109.547 48.1599 108.886 47.4026C108.225 46.6371 107.898 45.5917 107.898 44.25C107.898 42.9083 108.225 41.8547 108.886 41.0974C109.547 40.3401 110.453 39.9614 111.62 39.9614ZM111.62 41.0974C110.902 41.0974 110.339 41.3772 109.923 41.9452C109.506 42.5049 109.294 43.2787 109.294 44.25C109.294 45.2295 109.498 46.0033 109.914 46.563C110.322 47.1228 110.894 47.4026 111.612 47.4026C112.322 47.4026 112.885 47.1228 113.301 46.5548C113.718 45.9951 113.922 45.2213 113.922 44.25C113.922 43.2869 113.718 42.5214 113.301 41.9452C112.893 41.3855 112.33 41.0974 111.62 41.0974ZM104.348 36.9734H105.687V38.6773H104.348V36.9734ZM104.348 40.159H105.687V48.341H104.348V40.159ZM99.8593 37.8377V40.159H102.602V41.2044H99.8593V45.6411C99.8593 46.3078 99.9491 46.7359 100.129 46.9252C100.308 47.1145 100.675 47.2133 101.23 47.2133H102.602V48.341H101.23C100.202 48.341 99.492 48.1435 99.1002 47.7566C98.7085 47.3697 98.5208 46.6618 98.5208 45.6411V41.2044H97.5414V40.159H98.5208V37.8377H99.8593ZM95.7948 43.6738V48.341H94.4645V47.0981C94.1625 47.6002 93.7789 47.9624 93.3219 48.2011C92.873 48.4398 92.318 48.555 91.6569 48.555C90.8244 48.555 90.1633 48.3163 89.6736 47.8471C89.1758 47.3779 88.9391 46.7441 88.9391 45.9621C88.9391 45.0402 89.2492 44.3488 89.8532 43.8796C90.4653 43.4104 91.3794 43.1799 92.5873 43.1799H94.4563V43.0482C94.4563 42.4308 94.2523 41.9452 93.8524 41.6077C93.4524 41.2702 92.8811 41.0974 92.1547 41.0974C91.6895 41.0974 91.2406 41.155 90.7999 41.262C90.3592 41.3772 89.943 41.5419 89.5349 41.7641V40.5212C90.0246 40.3318 90.4979 40.1919 90.955 40.0931C91.412 40.0026 91.8528 39.9532 92.2935 39.9532C93.4606 39.9532 94.3421 40.2578 94.9215 40.8751C95.501 41.4925 95.7948 42.4226 95.7948 43.6738ZM93.1341 44.2253C92.0568 44.2253 91.3059 44.3488 90.8897 44.5957C90.4735 44.8427 90.2694 45.2707 90.2694 45.8716C90.2694 46.349 90.4245 46.7277 90.7346 47.0075C91.0448 47.2874 91.4692 47.4273 92.0078 47.4273C92.7505 47.4273 93.3382 47.1639 93.7871 46.6289C94.236 46.1021 94.4563 45.3942 94.4563 44.5216V44.2253H93.1341ZM78.4106 37.4344H80.3776L85.1766 46.5548V37.4344H86.5967V48.341H84.6298L79.8308 39.2124V48.341H78.4106V37.4344Z" fill="#080537"/>
<path d="M26.7725 3.76787C44.1485 -0.924036 62.0142 9.48048 66.6663 26.9969C71.3184 44.5216 61.0103 62.5402 43.6343 67.2321C26.2583 71.9323 8.39262 61.5278 3.74052 44.0031C-0.919739 26.4784 9.39649 8.45978 26.7725 3.76787ZM26.2257 1.69356C35.13 -0.718251 44.5729 0.541156 52.5549 5.19191C60.5451 9.84266 66.3317 17.4485 68.723 26.4372C71.1144 35.4177 69.8656 44.9414 65.2543 52.9918C60.6349 61.0503 53.1017 66.8864 44.1893 69.2982C35.2769 71.71 25.8421 70.4506 17.8601 65.7999C9.86171 61.1491 4.08331 53.5433 1.69197 44.5546C-0.691214 35.5659 0.549346 26.0503 5.16064 18C9.77193 9.94144 17.3051 4.10536 26.2257 1.69356Z" fill="#080537"/>
<path d="M34.1501 31.5325C36.3211 30.948 38.5573 32.2486 39.1368 34.4382C39.7244 36.6277 38.4267 38.8831 36.2558 39.4676C34.0848 40.052 31.8567 38.7514 31.269 36.5619C30.6896 34.3723 31.9791 32.1251 34.1501 31.5325Z" fill="#080537"/>
<path d="M27.8166 7.69427C28.4941 7.51318 28.6899 7.47202 28.6899 7.47202C29.3347 7.34032 29.5877 7.69427 29.2612 8.27047L27.3188 11.6618C26.9923 12.238 26.5842 12.1804 26.4129 11.5383L25.8905 9.5628C25.7191 8.92075 26.0945 8.22931 26.7148 8.0153C26.7148 8.02353 27.0576 7.90006 27.8166 7.69427ZM32.8605 8.0153C32.8605 7.35678 33.3992 6.78882 34.0521 6.76412L36.1088 6.75589C36.7617 6.78058 36.9168 7.18392 36.4516 7.64488L33.693 10.4271C33.2278 10.8963 32.8523 10.7399 32.8523 10.0732V8.0153H32.8605ZM39.9937 8.33632C40.1651 7.7025 40.8262 7.29093 41.471 7.4391L43.4542 7.96591C44.0827 8.15523 44.1235 8.5915 43.5603 8.92075L40.1978 10.8798C39.6264 11.2091 39.3081 10.9621 39.4714 10.3201L39.9937 8.33632ZM46.8005 10.5176C47.1269 9.94145 47.8778 9.72743 48.4573 10.032L50.2365 11.0609C50.7915 11.4149 50.7262 11.8429 50.0978 12.0075L46.3434 13.02C45.715 13.1929 45.462 12.8636 45.7884 12.2874L46.8005 10.5176ZM52.8156 14.3946C53.2808 13.9255 54.0561 13.909 54.5377 14.3535L55.9986 15.8187C56.4475 16.3043 56.2761 16.6994 55.6231 16.6994H51.7301C51.0771 16.6994 50.9139 16.3208 51.3791 15.8516L52.8156 14.3946ZM57.6391 19.7121C58.2104 19.3829 58.9612 19.564 59.3122 20.1237L60.3487 21.9182C60.6588 22.5026 60.3895 22.8401 59.7529 22.6672L55.9986 21.6548C55.362 21.4819 55.313 21.0703 55.8762 20.7411L57.6391 19.7121ZM60.92 26.108C61.5566 25.9351 62.2422 26.3055 62.4544 26.9311C62.4544 26.9311 62.5687 27.2768 62.7727 28.0506C62.9522 28.742 62.9931 28.9313 62.9931 28.9313C63.1236 29.5816 62.7727 29.8368 62.2014 29.5075L58.8388 27.5485C58.2757 27.2192 58.3246 26.8076 58.9612 26.6348L60.92 26.108ZM62.4544 33.1376C63.1155 33.1376 63.6705 33.6809 63.6949 34.3394L63.7113 36.4137C63.6868 37.0722 63.2869 37.2286 62.8217 36.7677L60.063 33.9854C59.5978 33.5162 59.7529 33.1376 60.414 33.1376H62.4544ZM62.1361 40.3319C62.7727 40.5047 63.1726 41.1715 63.0257 41.8135L62.5034 43.8137C62.3075 44.4476 61.8831 44.4887 61.5566 43.9208L59.6142 40.5294C59.2877 39.9532 59.5407 39.6322 60.1691 39.7968L62.1361 40.3319ZM59.9733 47.1969C60.5364 47.5261 60.7568 48.2834 60.4548 48.8678L59.4346 50.6623C59.0837 51.222 58.6674 51.1562 58.496 50.5224L57.4921 46.7359C57.3208 46.1021 57.6472 45.8469 58.2185 46.1762L59.9733 47.1969ZM56.1292 53.2634C56.5944 53.7326 56.6107 54.5146 56.17 55.0002L54.7172 56.4737C54.2438 56.9264 53.8439 56.7535 53.8439 56.095V52.1686C53.8439 51.5101 54.2194 51.3455 54.6846 51.8147L56.1292 53.2634ZM50.8568 58.1282C51.1832 58.7044 51.0037 59.4617 50.4487 59.8156L48.6695 60.861C48.09 61.1738 47.7554 60.9022 47.9268 60.2684L48.9388 56.4737C49.1102 55.8316 49.5183 55.7822 49.8447 56.3502L50.8568 58.1282ZM44.5152 61.4372C44.6866 62.0793 44.3112 62.7707 43.6909 62.9847C43.6909 62.9847 43.3481 63.1 42.5891 63.3058C41.9035 63.4951 41.7158 63.528 41.7158 63.528C41.071 63.6679 40.818 63.3058 41.1445 62.7378L43.087 59.3464C43.4134 58.7702 43.8215 58.8279 43.9929 59.4699L44.5152 61.4372ZM37.5452 62.9847C37.5452 63.6432 37.0066 64.2112 36.3537 64.2359L34.2969 64.2524C33.644 64.2277 33.4808 63.8243 33.946 63.3551L36.6964 60.5811C37.1617 60.112 37.5452 60.2684 37.5452 60.9351V62.9847ZM30.412 62.6637C30.2406 63.3057 29.5795 63.7091 28.9429 63.5609L26.9597 63.0341C26.3312 62.8366 26.2823 62.4085 26.8536 62.0793L30.2161 60.1202C30.7875 59.7909 31.1139 60.0461 30.9425 60.6799L30.412 62.6637ZM23.6053 60.4741C23.2788 61.0503 22.5361 61.2644 21.9566 60.9598L20.1774 59.9309C19.6224 59.5851 19.6877 59.1571 20.3162 58.9843L24.0705 57.9718C24.7071 57.7989 24.9519 58.1282 24.6255 58.7044L23.6053 60.4741ZM17.5902 56.6054C17.125 57.0746 16.3496 57.091 15.8681 56.6465L14.4072 55.1896C13.9583 54.7039 14.1297 54.3088 14.7826 54.3088H18.6757C19.3368 54.3088 19.4918 54.6957 19.0266 55.1566L17.5902 56.6054ZM12.7667 51.2879C12.2035 51.6171 11.4445 51.436 11.0936 50.8763L10.0652 49.0819C9.75507 48.4974 10.0244 48.1599 10.661 48.3328L14.4235 49.3453C15.0601 49.5181 15.1091 49.9297 14.5378 50.2589L12.7667 51.2879ZM9.48574 44.8921C8.84913 45.0649 8.16356 44.6863 7.95136 44.0607C7.95136 44.0607 7.8371 43.715 7.63306 42.9494C7.4535 42.258 7.41269 42.0687 7.41269 42.0687C7.28211 41.4266 7.63306 41.1632 8.19621 41.4925L11.5588 43.4516C12.1301 43.7808 12.073 44.1924 11.4445 44.3653L9.48574 44.8921ZM7.95136 37.8624C7.29027 37.8624 6.73528 37.3192 6.7108 36.6606L6.70264 34.5863C6.72712 33.9278 7.11888 33.7632 7.58409 34.2324L10.3427 37.0146C10.8079 37.4838 10.6528 37.8624 9.99175 37.8624H7.95136ZM8.26966 30.6682C7.64122 30.4953 7.2413 29.8286 7.38005 29.1865L7.90239 27.1863C8.09011 26.5525 8.52267 26.5031 8.84913 27.0793L10.7916 30.4788C11.1181 31.055 10.8732 31.3761 10.2366 31.2114L8.26966 30.6682ZM10.4325 23.8032C9.86117 23.4739 9.64897 22.7248 9.95095 22.1404L10.9711 20.346C11.3221 19.7862 11.7383 19.8438 11.9097 20.4859L12.9136 24.2724C13.085 24.9144 12.7585 25.1613 12.1872 24.8321L10.4325 23.8032ZM14.2847 17.7366C13.8195 17.2674 13.8032 16.4854 14.2439 15.9998L15.6885 14.5264C16.1701 14.0736 16.5618 14.2465 16.5618 14.9132V18.8396C16.5618 19.4981 16.1864 19.6628 15.713 19.1936L14.2847 17.7366ZM19.549 12.8718C19.2225 12.2956 19.4021 11.5383 19.957 11.1844L21.7281 10.139C22.3076 9.82621 22.6422 10.0978 22.4708 10.7399L21.4669 14.5346C21.2955 15.1766 20.8875 15.226 20.561 14.6498L19.549 12.8718Z" fill="#080537"/>
<path d="M35.2031 7.0769C50.7673 7.0769 63.3851 19.8109 63.3851 35.5C63.3851 51.1973 50.7591 63.9231 35.2031 63.9231C19.639 63.9231 7.02119 51.1973 7.02119 35.5C7.02119 19.8027 19.639 7.0769 35.2031 7.0769ZM35.2031 5.65286C51.5426 5.65286 64.8052 19.0207 64.8052 35.5082C64.8052 51.9875 51.5508 65.3636 35.2031 65.3636C18.8555 65.3636 5.60107 51.9958 5.60107 35.5082C5.60924 19.0125 18.8555 5.65286 35.2031 5.65286Z" fill="#080537"/>
<path d="M46.5474 22.8154C46.3271 23.3998 46.6046 23.6715 47.1759 23.4163C47.7472 23.1611 49.0531 22.9553 50.0896 22.9636C51.1179 22.9636 53.2155 25.8034 53.8113 27.1534C54.4071 28.5033 54.8886 30.4542 54.8804 31.4913C54.8804 32.5367 52.6931 34.3641 52.1218 34.6193C51.5587 34.8744 51.5668 35.2695 52.1463 35.4918C52.7258 35.714 53.7949 36.5042 54.5213 37.2451C55.2477 37.9777 54.7417 41.4843 54.2193 42.8589C53.697 44.2335 52.6686 45.9621 51.9341 46.6947C51.1996 47.4273 48.3675 47.1639 47.788 46.9417C47.2085 46.7194 46.9392 46.9993 47.1922 47.5755C47.4452 48.1517 47.6493 49.4687 47.6493 50.5141C47.6493 51.5595 44.8254 53.6668 43.495 54.2677C42.1565 54.8685 40.2222 55.3542 39.1939 55.3542C38.1573 55.346 36.3455 53.1399 36.0925 52.5637C35.8395 51.9875 35.4477 52.004 35.2273 52.5884C35.007 53.1729 34.2235 54.2512 33.4889 54.992C32.7544 55.7246 29.2857 55.2143 27.9227 54.6792C26.5597 54.1524 24.8458 53.1153 24.1194 52.3744C23.3931 51.6418 23.6542 48.7773 23.8746 48.1929C24.0949 47.6084 23.8175 47.3368 23.2461 47.592C22.683 47.8471 21.369 48.0529 20.3406 48.0447C19.3041 48.0447 17.2066 45.1966 16.6189 43.8549C16.0231 42.5049 15.5416 40.5541 15.5416 39.5169C15.5416 38.4716 17.7371 36.6442 18.3002 36.389C18.8634 36.1338 18.8552 35.7387 18.2757 35.5165C17.6963 35.2942 16.6271 34.504 15.9007 33.7632C15.1743 33.0306 15.6885 29.524 16.2109 28.1494C16.7332 26.7747 17.7616 25.0461 18.4961 24.3135C19.2306 23.5809 22.0627 23.8443 22.6422 24.0748C23.2217 24.3053 23.491 24.0172 23.238 23.441C22.985 22.8648 22.7809 21.5478 22.7891 20.5024C22.7891 19.457 25.6048 17.3415 26.9433 16.7488C28.2818 16.1479 30.2161 15.6623 31.2445 15.6623C32.2728 15.6623 34.0929 17.8765 34.3459 18.4445C34.5989 19.0207 34.9907 19.0125 35.211 18.4198C35.4314 17.8354 36.2149 16.7571 36.9494 16.0245C37.684 15.2919 41.1608 15.8022 42.5238 16.3373C43.8868 16.8641 45.5925 17.9012 46.3271 18.6421C47.029 19.3664 46.7678 22.231 46.5474 22.8154ZM28.1513 47.7072C27.6208 49.1065 28.1268 50.6129 29.2775 51.0656C30.4283 51.5101 31.8076 50.7281 32.3463 49.3288L32.9829 47.6578C33.5134 46.2585 34.2806 44.9661 34.6968 44.7768C35.1049 44.5957 35.7823 44.571 36.1986 44.7357C36.6148 44.9003 37.4555 46.1515 38.0594 47.5179L38.7776 49.1477C39.3816 50.5141 40.8017 51.222 41.928 50.7199C43.0543 50.2096 43.4869 48.6785 42.8829 47.3121L42.1647 45.6823C41.5607 44.3159 41.1935 42.8424 41.3567 42.4226C41.5199 42.0028 41.9851 41.509 42.3932 41.3196C42.8013 41.1385 44.2704 41.4266 45.6578 41.9617L47.3065 42.6037C48.6939 43.1388 50.1957 42.6284 50.6364 41.4596C51.0771 40.2989 50.3018 38.9078 48.9225 38.3645L47.2657 37.7225C45.8782 37.1875 44.5968 36.4055 44.4091 35.9939C44.2296 35.5823 44.2051 34.8991 44.3683 34.4793C44.5315 34.0595 45.7721 33.2117 47.1269 32.6026L48.7429 31.8782C50.0977 31.2691 50.7996 29.8368 50.3018 28.7009C49.7958 27.5649 48.2777 27.1287 46.9147 27.7378L45.2987 28.4621C43.9439 29.0713 42.483 29.4417 42.0667 29.2771C41.6505 29.1124 41.1608 28.6432 40.9731 28.2317C40.7935 27.8201 41.0792 26.3384 41.6097 24.9391L42.2463 23.2681C42.785 21.8688 42.2708 20.3542 41.12 19.9097C39.9692 19.4652 38.5899 20.239 38.0512 21.6465L37.4146 23.3093C36.8841 24.7086 36.1088 26.0092 35.7007 26.1903C35.2926 26.3714 34.6152 26.3878 34.199 26.2314C33.7827 26.0668 32.9421 24.8156 32.3381 23.4492L31.6199 21.8194C31.016 20.453 29.5959 19.7451 28.4696 20.2472C27.3351 20.7575 26.9107 22.2886 27.5146 23.655L28.2329 25.2848C28.8368 26.6512 29.2041 28.1164 29.0409 28.5362C28.8776 28.956 28.4124 29.4499 28.0043 29.6392C27.5963 29.8203 26.1272 29.5322 24.7397 28.9972L23.0829 28.3551C21.6954 27.8201 20.1937 28.3304 19.753 29.4993C19.3123 30.6599 20.0795 32.0593 21.4751 32.5943L23.1237 33.2364C24.5112 33.7714 25.7926 34.5534 25.9803 34.965C26.1598 35.3765 26.1762 36.0597 26.0211 36.4796C25.866 36.8994 24.6173 37.7472 23.2625 38.3563L21.6465 39.0807C20.2917 39.6898 19.5898 41.1221 20.0958 42.258C20.5936 43.3939 22.1198 43.8302 23.4828 43.2211L25.0988 42.4967C26.4618 41.8876 27.9146 41.5254 28.3308 41.6818C28.747 41.8464 29.2367 42.3156 29.4245 42.7272C29.604 43.1388 29.3184 44.6204 28.7879 46.0198L28.1513 47.7072Z" fill="#080537"/>
</g>
<defs>
<clipPath id="clip0_200_9150">
<rect width="316" height="70" fill="white" transform="translate(0.5 0.5)"/>
</clipPath>
</defs>
</svg>
