<svg width="106" height="38" viewBox="0 0 106 38" fill="none" xmlns="http://www.w3.org/2000/svg">
<g clip-path="url(#clip0_678_3871)">
<path d="M43.5501 37.0654C43.5556 37.1358 43.5438 37.2065 43.5158 37.2713C43.4878 37.3362 43.4444 37.3933 43.3893 37.4378C43.2557 37.5262 43.1056 37.587 42.948 37.6165C42.6775 37.6612 42.4032 37.6799 42.1291 37.6724C41.8525 37.6762 41.5761 37.6575 41.3026 37.6165C41.1393 37.5952 40.9838 37.5338 40.8502 37.4378C40.8001 37.3903 40.7615 37.3321 40.7376 37.2676C40.7136 37.203 40.7048 37.1338 40.7118 37.0654V35.2741C39.9685 36.0808 39.0808 36.7426 38.0941 37.2255C37.1387 37.6875 36.0898 37.9257 35.0277 37.9219C34.1571 37.9328 33.2901 37.8071 32.4587 37.5495C31.7398 37.3305 31.0731 36.9681 30.4992 36.4844C29.9571 36.0155 29.5277 35.4314 29.2427 34.7751C28.929 34.0462 28.7748 33.2591 28.7903 32.4662C28.7711 31.5588 28.9847 30.6616 29.411 29.8594C29.8335 29.0965 30.4466 28.4551 31.191 27.9974C32.0627 27.4622 33.0222 27.0841 34.0256 26.8801C35.2686 26.6203 36.5362 26.4955 37.8062 26.5077H40.2817V25.1261C40.293 24.5094 40.2188 23.8941 40.0611 23.2976C39.9368 22.8053 39.6942 22.3503 39.3544 21.9719C38.997 21.6121 38.5566 21.3449 38.0717 21.1936C37.4512 21.0005 36.8032 20.9099 36.1533 20.9254C35.4138 20.9155 34.6768 21.0134 33.9657 21.2159C33.3846 21.3854 32.8171 21.5983 32.268 21.8527C31.7819 22.0836 31.3742 22.2959 31.0489 22.4895C30.8262 22.6432 30.5697 22.7415 30.301 22.7763C30.2017 22.7791 30.1039 22.7518 30.0205 22.6981C29.931 22.6382 29.8588 22.556 29.8111 22.4597C29.7436 22.3319 29.6993 22.1932 29.6803 22.0501C29.6517 21.869 29.6379 21.6859 29.6391 21.5027C29.6346 21.239 29.6584 20.9755 29.7102 20.7169C29.7715 20.507 29.8892 20.3177 30.0505 20.1694C30.3396 19.9204 30.6601 19.7101 31.004 19.5438C31.492 19.2911 31.9998 19.0781 32.5223 18.907C33.1338 18.7054 33.7585 18.5462 34.392 18.4303C35.0715 18.3039 35.7613 18.2404 36.4525 18.2404C37.5668 18.2185 38.6778 18.3667 39.747 18.6798C40.5739 18.9219 41.3288 19.3617 41.9458 19.9609C42.5187 20.5511 42.9374 21.2723 43.1649 22.0613C43.4308 23.0138 43.5568 23.9998 43.5389 24.9883L43.5501 37.0654ZM40.2705 28.8725H37.4547C36.6622 28.8621 35.8709 28.9383 35.0951 29.0997C34.5048 29.2232 33.9422 29.4529 33.4347 29.7774C33.0183 30.058 32.6841 30.4435 32.4662 30.8947C32.2519 31.3446 32.1456 31.838 32.1558 32.3359C32.1347 32.7501 32.2032 33.1639 32.3568 33.5495C32.5103 33.935 32.7453 34.2831 33.0458 34.5703C33.7378 35.1555 34.6301 35.4517 35.5363 35.397C36.3846 35.4015 37.2178 35.1735 37.9446 34.7379C38.8162 34.1882 39.6002 33.5116 40.2705 32.7306V28.8725Z" fill="#372D78"/>
<path d="M64.8802 37.0467C64.883 37.1421 64.8555 37.2359 64.8017 37.3148C64.7342 37.4015 64.6434 37.4673 64.5399 37.5048C64.3809 37.5684 64.2133 37.6086 64.0426 37.6239C63.7769 37.6531 63.5096 37.6655 63.2423 37.6612C62.9688 37.6655 62.6953 37.6531 62.4234 37.6239C62.2514 37.6086 62.0826 37.5684 61.9223 37.5048C61.8203 37.4664 61.731 37.4006 61.6643 37.3148C61.6091 37.2363 61.5803 37.1425 61.582 37.0467V26.5598C61.6016 25.7303 61.5212 24.9013 61.3427 24.0908C61.2051 23.517 60.9684 22.9714 60.6434 22.4783C60.3453 22.036 59.935 21.6802 59.4542 21.4468C58.9289 21.1932 58.3513 21.0657 57.7677 21.0744C56.8709 21.097 56.0038 21.3992 55.2884 21.9383C54.3076 22.6849 53.4344 23.5621 52.6932 24.5451V37.0616C52.6959 37.157 52.6684 37.2508 52.6146 37.3297C52.5471 37.4164 52.4564 37.4822 52.3529 37.5197C52.1938 37.5833 52.0263 37.6235 51.8555 37.6388C51.5836 37.668 51.3101 37.6804 51.0366 37.6761C50.7693 37.6804 50.502 37.668 50.2363 37.6388C50.0622 37.6217 49.8912 37.5816 49.7278 37.5197C49.6235 37.4836 49.5324 37.4175 49.466 37.3297C49.4186 37.2483 49.3941 37.1557 49.3949 37.0616V19.1379C49.3871 19.0374 49.4125 18.9373 49.4672 18.8525C49.5219 18.7678 49.6029 18.7032 49.6978 18.6686C49.8426 18.6013 49.9985 18.5609 50.1578 18.5495C50.341 18.5495 50.5878 18.5197 50.9057 18.5197C51.1492 18.5118 51.3929 18.5218 51.6349 18.5495C51.7913 18.5569 51.9443 18.5975 52.0836 18.6686C52.1768 18.7132 52.2568 18.7813 52.3155 18.866C52.365 18.9479 52.3897 19.0423 52.3865 19.1379V21.5063C53.2387 20.5055 54.2647 19.6654 55.4155 19.0261C56.3506 18.5207 57.3957 18.251 58.4595 18.2404C59.5025 18.2092 60.5388 18.4168 61.4885 18.8474C62.2726 19.2222 62.9548 19.7791 63.4779 20.4711C63.9976 21.182 64.3678 21.9901 64.5661 22.847C64.8043 23.9215 64.9147 25.0202 64.8952 26.1204L64.8802 37.0467Z" fill="#372D78"/>
<path d="M73.7579 19.093C73.759 18.9944 73.7318 18.8975 73.6794 18.8137C73.6123 18.7249 73.5217 18.6566 73.4176 18.6164C73.2573 18.5527 73.0885 18.5126 72.9165 18.4972C72.6447 18.4668 72.3712 18.4532 72.0976 18.4562C71.8315 18.4532 71.5654 18.4668 71.3011 18.4972C71.1258 18.5143 70.9535 18.5544 70.7888 18.6164C70.6838 18.653 70.5933 18.7221 70.5307 18.8137C70.4815 18.8985 70.4569 18.9952 70.4597 19.093V37.0466C70.457 37.1409 70.4817 37.234 70.5307 37.3147C70.5937 37.4043 70.6843 37.471 70.7888 37.5046C70.9535 37.5666 71.1258 37.6067 71.3011 37.6238C71.5655 37.6529 71.8316 37.6654 72.0976 37.6611C72.3711 37.6654 72.6446 37.6529 72.9165 37.6238C73.0885 37.6084 73.2573 37.5683 73.4176 37.5046C73.5194 37.464 73.6094 37.3988 73.6794 37.3147C73.7332 37.2358 73.7607 37.142 73.7579 37.0466V19.093Z" fill="#372D78"/>
<path d="M106 27.8967C106.012 29.26 105.816 30.6173 105.42 31.9224C105.07 33.0871 104.482 34.1672 103.693 35.0952C102.905 35.9994 101.92 36.7116 100.813 37.177C99.5432 37.6944 98.1803 37.9478 96.8083 37.9218C95.4893 37.9494 94.1771 37.727 92.9416 37.2664C91.8862 36.8558 90.9441 36.2009 90.1931 35.3559C89.4331 34.4699 88.8743 33.4308 88.5552 32.3097C88.1773 30.9964 87.9946 29.6351 88.013 28.2691C87.9993 26.8983 88.1947 25.5334 88.5926 24.2211C88.9361 23.0557 89.5208 21.9749 90.309 21.0482C91.0921 20.1471 92.0737 19.4385 93.1772 18.9776C94.4512 18.4601 95.8178 18.2067 97.1935 18.2328C98.5128 18.2046 99.8253 18.4284 101.06 18.892C102.116 19.3062 103.056 19.9679 103.801 20.821C104.562 21.7083 105.124 22.7468 105.45 23.8673C105.833 25.176 106.018 26.5339 106 27.8967ZM102.582 28.1164C102.587 27.1934 102.495 26.2723 102.309 25.3681C102.152 24.5636 101.848 23.7948 101.412 23.1001C100.99 22.4514 100.406 21.9228 99.7176 21.5658C98.8923 21.1604 97.9785 20.9658 97.0588 20.9998C96.1863 20.9766 95.32 21.1537 94.5272 21.5174C93.8329 21.8529 93.2329 22.3544 92.7808 22.9773C92.3045 23.6522 91.9595 24.4101 91.7637 25.2117C91.5353 26.1364 91.4235 27.0859 91.4309 28.0382C91.4242 28.9675 91.5157 29.8949 91.7039 30.8052C91.8599 31.6093 92.1683 32.3764 92.6126 33.0656C93.0389 33.7133 93.6247 34.2416 94.314 34.5999C95.1414 35.0035 96.0559 35.1979 96.9766 35.166C97.8454 35.1875 98.7076 35.0104 99.497 34.6484C100.195 34.3182 100.798 33.8188 101.251 33.196C101.73 32.5238 102.073 31.7647 102.26 30.9616C102.481 30.0281 102.589 29.0717 102.582 28.1127V28.1164Z" fill="#372D78"/>
<path d="M83.1481 32.6597L81.1288 30.7977L78.5448 28.4106L78.2494 28.1388L81.1475 25.4612L84.8234 22.0686C85.0897 21.4378 85.227 20.7605 85.2273 20.0762C85.2322 19.5454 85.163 19.0165 85.0216 18.5047C84.8948 18.4019 84.7364 18.3457 84.5729 18.3457C84.4094 18.3457 84.2509 18.4019 84.1241 18.5047L80.6539 21.7073L77.4416 24.6866L76.4469 25.599L73.6797 28.1574L79.2889 33.3189L80.6613 34.585L84.1316 37.7914C84.7598 38.1005 85.0291 37.7914 85.0291 37.7914C85.1684 37.2779 85.2376 36.7481 85.2348 36.2162C85.2422 35.5346 85.1125 34.8584 84.8533 34.2275L83.1481 32.6597Z" fill="#372D78"/>
<path d="M21.506 29.6917L18.2901 26.7125L14.128 22.8768L13.6493 22.4373L18.2901 18.1472L24.191 12.699C24.6208 11.6844 24.8409 10.5938 24.8379 9.4926C24.8455 8.64088 24.7335 7.79227 24.5051 6.97144L18.937 12.1143L13.8027 16.8736L12.2096 18.3409L7.76709 22.4373L16.7419 30.7196L18.9407 32.738L24.5089 37.8809C24.737 37.0587 24.849 36.2089 24.8417 35.356C24.8432 34.2549 24.6232 33.1647 24.1947 32.1496L21.506 29.6917Z" fill="#FF7340"/>
<path d="M22.7511 3.91005C21.3057 2.45821 19.499 1.41467 17.5158 0.886142C15.3665 0.2868 13.1438 -0.0115059 10.9119 -0.000177373H0L0.411345 8.22248V29.7772L0 37.9998H6.1627L5.60178 26.7793V7.36223C5.5723 6.22787 5.64993 5.09326 5.83363 3.97336C5.89702 3.62402 6.03542 3.29244 6.23936 3.00128C6.44331 2.71012 6.70799 2.46626 7.01531 2.28638C7.65103 1.91397 8.67565 1.70915 10.0817 1.70915C11.2565 1.7008 12.4261 1.86646 13.552 2.20072C14.6199 2.52176 15.6234 3.02585 16.5174 3.69034C17.387 4.33508 18.0969 5.16946 18.5928 6.12958C19.1187 7.16806 19.383 8.31832 19.3632 9.4812C19.3632 9.63389 19.3407 9.7754 19.3332 9.92436L23.7945 5.82793L23.9889 5.64918C23.6673 5.01028 23.25 4.42385 22.7511 3.91005Z" fill="#372D78"/>
</g>
<defs>
<clipPath id="clip0_678_3871">
<rect width="106" height="38" fill="white"/>
</clipPath>
</defs>
</svg>
