<svg width="169" height="34" viewBox="0 0 169 34" fill="none" xmlns="http://www.w3.org/2000/svg">
<path d="M20.1045 0.152097L38.213 31.1712C38.213 31.1712 38.0746 31.9458 37.6659 31.537C37.2539 31.0822 31.2353 26.7017 28.6347 25.1954C26.0341 23.6892 21.5647 22.0477 21.3373 21.9126C21.1098 21.7742 19.831 20.5909 19.4684 18.5836C18.7828 14.6151 18.6477 7.40669 18.829 4.30511C18.9213 2.93725 19.0103 1.20353 19.241 0.471809C19.4223 -0.0324864 19.9694 -0.121475 20.1045 0.152097Z" fill="#4EA0D8"/>
<path d="M2.40467 33.3136C2.40467 33.3136 9.74826 30.2582 13.2157 27.7927C16.6831 25.3306 18.3246 24.233 18.7794 23.9166C19.2343 23.6002 19.8276 23.142 23.796 24.556C28.1765 26.1513 34.8345 30.3505 35.9288 31.2173C37.023 32.0842 39.3501 34.0453 37.2505 33.9992C35.1509 33.953 11.5677 33.9992 2.6288 33.9992C2.08825 33.953 1.31038 33.7256 2.40467 33.3136Z" fill="#4EA0D8"/>
<path d="M18.1896 0.745391C18.2357 1.97811 17.6886 8.18127 17.5963 9.3217C17.504 10.4621 17.4578 15.3897 17.5501 16.6653C17.5963 17.898 18.1434 21.2732 17.3688 22.3675C16.5481 23.4617 10.6185 29.0288 3.13651 31.9919C-0.466068 33.4059 -0.284785 32.6313 1.40279 29.5726C2.77065 27.0643 18.1896 0.059813 18.1896 0.745391Z" fill="#4EA0D8"/>
<path d="M55.0493 21.8203C55.0493 21.9588 55.0493 22.0478 55.0493 22.1401C55.0493 22.2324 55.0031 22.2785 54.957 22.3675C54.9109 22.4136 54.8647 22.4598 54.8186 22.5059C54.7724 22.5521 54.7263 22.5521 54.6801 22.5521H50.804V33.1357C50.804 33.1818 50.804 33.228 50.7578 33.2741C50.7117 33.3203 50.6655 33.3203 50.6194 33.3664C50.5271 33.3664 50.4381 33.4125 50.3458 33.4125C50.2074 33.4125 50.0723 33.4587 49.891 33.4587C49.7097 33.4587 49.5713 33.4587 49.4361 33.4125C49.2977 33.4125 49.2087 33.3664 49.1626 33.3664C49.0703 33.3664 49.0241 33.3203 49.0241 33.2741C48.978 33.228 48.978 33.1818 48.978 33.1357V22.5521H45.1018C45.0557 22.5521 45.0095 22.5521 44.9634 22.5059C44.9172 22.4598 44.8711 22.4598 44.8711 22.3675C44.825 22.3213 44.825 22.2291 44.825 22.1401C44.825 22.0478 44.7788 21.9588 44.7788 21.8203C44.7788 21.6819 44.7788 21.5929 44.825 21.5006C44.825 21.4083 44.8711 21.3193 44.8711 21.2732C44.9172 21.2271 44.9172 21.1809 44.9634 21.1348C45.0095 21.0886 45.0557 21.0886 45.1018 21.0886H54.7263C54.7724 21.0886 54.8186 21.0886 54.8647 21.1348C54.9109 21.1809 54.957 21.1809 55.0031 21.2732C55.0493 21.3193 55.0493 21.4116 55.0954 21.5006C55.0493 21.5896 55.0493 21.6819 55.0493 21.8203Z" fill="#4EA0D8"/>
<path d="M71.882 29.8033C71.882 30.1692 71.8359 30.5318 71.7007 30.8515C71.6084 31.1712 71.4271 31.4448 71.2459 31.7183C71.0646 31.9919 70.791 32.2193 70.5174 32.4039C70.2439 32.5852 69.9241 32.7698 69.5583 32.9049C69.1924 33.0434 68.8299 33.1323 68.4179 33.2246C68.0058 33.2708 67.551 33.3169 67.05 33.3169H63.4474C63.2661 33.3169 63.1277 33.2708 62.9926 33.1785C62.8541 33.0862 62.7651 32.9049 62.7651 32.6775V21.8203C62.7651 21.5929 62.8574 21.4083 62.9926 21.3193C63.131 21.227 63.3123 21.1809 63.4474 21.1809H66.5951C67.4159 21.1809 68.1014 21.2732 68.6486 21.4083C69.1957 21.5467 69.6077 21.728 69.9703 22.0016C70.3362 22.2752 70.6097 22.5949 70.7449 22.9607C70.9261 23.3266 71.0184 23.7815 71.0184 24.2396C71.0184 24.5132 70.9723 24.7868 70.88 25.0603C70.7877 25.3339 70.6987 25.5613 70.5141 25.7888C70.3757 26.0162 70.1483 26.2008 69.9209 26.382C69.6934 26.5633 69.4199 26.7018 69.1463 26.794C69.5121 26.8402 69.8747 26.9753 70.1944 27.1599C70.5141 27.3412 70.7877 27.5258 71.0613 27.7993C71.2887 28.0729 71.5161 28.3465 71.6546 28.7123C71.7897 29.0255 71.882 29.3913 71.882 29.8033ZM69.0968 24.3747C69.0968 24.1012 69.0507 23.8276 68.9584 23.554C68.8661 23.3266 68.731 23.0992 68.5036 22.9607C68.3223 22.7795 68.0487 22.6872 67.729 22.5949C67.4093 22.5026 67.0006 22.4564 66.4501 22.4564H64.5351V26.4249H66.6347C67.0896 26.4249 67.5016 26.3787 67.7751 26.2436C68.0487 26.1513 68.3223 25.97 68.5036 25.7888C68.6848 25.6075 68.8233 25.3767 68.9156 25.1493C69.054 24.8757 69.0968 24.6022 69.0968 24.3747ZM69.9637 29.8923C69.9637 29.5265 69.9176 29.2068 69.7824 28.9332C69.644 28.6596 69.4627 28.4322 69.1891 28.2476C68.9156 28.063 68.642 27.9279 68.23 27.8356C67.8641 27.7433 67.3631 27.6972 66.816 27.6972H64.6274V31.9853H67.2741C67.6861 31.9853 68.0487 31.9392 68.3684 31.8469C68.6881 31.7546 68.9617 31.6195 69.1891 31.4349C69.4166 31.2536 69.6011 31.0229 69.7363 30.7954C69.8747 30.5318 69.9637 30.2582 69.9637 29.8923Z" fill="#4EA0D8"/>
<path d="M89.6245 31.5799C89.6245 31.6722 89.6245 31.7612 89.6245 31.8535C89.6245 31.9458 89.6245 31.9919 89.5783 32.0348C89.5783 32.0809 89.5322 32.1271 89.486 32.1732C89.4399 32.2193 89.3937 32.2655 89.3476 32.3545C89.2553 32.4006 89.1202 32.4929 88.8927 32.6281C88.6653 32.7665 88.3917 32.9016 88.0259 32.9939C87.7062 33.1324 87.2975 33.2213 86.8393 33.3136C86.3845 33.4059 85.9263 33.4521 85.4253 33.4521C84.5123 33.4521 83.7377 33.3136 83.006 33.0401C82.2776 32.7665 81.6843 32.4006 81.1372 31.8535C80.6362 31.3525 80.2242 30.7131 79.9506 29.9385C79.677 29.1639 79.5386 28.2971 79.5386 27.3379C79.5386 26.3359 79.677 25.4229 79.9934 24.645C80.267 23.8705 80.7219 23.1849 81.2261 22.6377C81.7733 22.0906 82.4127 21.6786 83.1412 21.3589C83.8696 21.0853 84.6936 20.904 85.6033 20.904C86.0153 20.904 86.3779 20.9502 86.7899 20.9963C87.1557 21.0425 87.5183 21.1347 87.838 21.2237C88.1577 21.3127 88.4313 21.4512 88.7049 21.5896C88.9323 21.728 89.1169 21.817 89.2059 21.9093C89.2982 22.0016 89.3443 22.0478 89.3872 22.0906C89.4333 22.1367 89.4333 22.1829 89.4794 22.229C89.4794 22.2752 89.5256 22.3675 89.5256 22.4565C89.5256 22.5487 89.5256 22.6377 89.5256 22.73C89.5256 22.8685 89.5256 22.9575 89.5256 23.0498C89.5256 23.142 89.4794 23.231 89.4794 23.2772C89.4333 23.3233 89.4333 23.3695 89.3872 23.4156C89.341 23.4618 89.2949 23.4618 89.2487 23.4618C89.1564 23.4618 89.0213 23.4156 88.8367 23.2805C88.6554 23.142 88.4247 23.0069 88.1511 22.8685C87.8776 22.73 87.5117 22.5949 87.103 22.4565C86.691 22.318 86.19 22.2752 85.6429 22.2752C85.0034 22.2752 84.4563 22.3675 83.9553 22.5949C83.4543 22.8223 82.9961 23.142 82.6764 23.554C82.3106 23.9661 82.037 24.467 81.8557 25.1065C81.6744 25.6998 81.5821 26.3853 81.5821 27.2061C81.5821 27.9806 81.6744 28.6662 81.8557 29.2595C82.037 29.8528 82.3106 30.3538 82.6764 30.7658C83.0423 31.1778 83.451 31.4514 83.9981 31.6788C84.4991 31.8601 85.0924 31.9985 85.7318 31.9985C86.279 31.9985 86.78 31.9524 87.192 31.8172C87.604 31.6788 87.9666 31.5437 88.2401 31.4052C88.5137 31.2668 88.7873 31.1317 88.9686 30.9932C89.1498 30.8548 89.2883 30.8119 89.4234 30.8119C89.4696 30.8119 89.5157 30.8119 89.5618 30.8581C89.608 30.8581 89.608 30.9042 89.6541 30.9504C89.6541 30.9965 89.7003 31.0888 89.7003 31.1778C89.6245 31.3063 89.6245 31.4448 89.6245 31.5799Z" fill="#4EA0D8"/>
<path d="M115.261 29.8033C115.261 30.1692 115.215 30.5318 115.08 30.8515C114.988 31.1712 114.807 31.4448 114.625 31.7183C114.444 31.9919 114.17 32.2193 113.897 32.4039C113.623 32.5852 113.304 32.7698 112.938 32.9049C112.572 33.0434 112.209 33.1323 111.797 33.2246C111.385 33.2708 110.93 33.3169 110.429 33.3169H106.827C106.646 33.3169 106.507 33.2708 106.372 33.1785C106.234 33.0862 106.145 32.9049 106.145 32.6775V21.8203C106.145 21.5929 106.237 21.4083 106.372 21.3193C106.51 21.227 106.692 21.1809 106.827 21.1809H109.975C110.795 21.1809 111.481 21.2732 112.028 21.4083C112.575 21.5467 112.987 21.728 113.35 22.0016C113.716 22.2752 113.989 22.5949 114.124 22.9607C114.306 23.3266 114.398 23.7815 114.398 24.2396C114.398 24.5132 114.352 24.7868 114.259 25.0603C114.167 25.3339 114.078 25.5613 113.894 25.7888C113.755 26.0162 113.528 26.2008 113.3 26.382C113.073 26.5633 112.799 26.7018 112.526 26.794C112.892 26.8402 113.254 26.9753 113.574 27.1599C113.894 27.3412 114.167 27.5258 114.441 27.7993C114.668 28.0729 114.896 28.3465 115.034 28.7123C115.219 29.0255 115.261 29.3913 115.261 29.8033ZM112.526 24.3747C112.526 24.1012 112.48 23.8276 112.387 23.554C112.295 23.3266 112.16 23.0992 111.932 22.9607C111.751 22.7795 111.478 22.6872 111.158 22.5949C110.838 22.5026 110.429 22.4564 109.879 22.4564H107.964V26.4249H110.064C110.518 26.4249 110.93 26.3787 111.204 26.2436C111.478 26.1513 111.751 25.97 111.932 25.7888C112.114 25.6075 112.252 25.3767 112.344 25.1493C112.48 24.8757 112.526 24.6022 112.526 24.3747ZM113.346 29.8923C113.346 29.5265 113.3 29.2068 113.165 28.9332C113.027 28.6596 112.845 28.4322 112.572 28.2476C112.298 28.0663 112.025 27.9279 111.613 27.8356C111.247 27.7433 110.746 27.6972 110.199 27.6972H108.01V31.9853H110.657C111.069 31.9853 111.431 31.9392 111.751 31.8469C112.071 31.7546 112.344 31.6195 112.572 31.4349C112.799 31.2536 112.984 31.0229 113.119 30.7954C113.3 30.5318 113.346 30.2582 113.346 29.8923Z" fill="#4EA0D8"/>
<path d="M125.845 28.7981L128.218 22.73L130.637 28.7981L131.138 30.0769L132.325 33.0434C132.371 33.0895 132.371 33.1356 132.417 33.1818C132.463 33.2279 132.509 33.2279 132.556 33.2741C132.602 33.2741 132.737 33.3202 132.875 33.3202C133.014 33.3202 133.195 33.3202 133.422 33.3202C133.65 33.3202 133.835 33.3202 133.97 33.3202C134.108 33.3202 134.197 33.2741 134.243 33.2279C134.289 33.1818 134.335 33.1356 134.335 33.0467C134.335 32.9544 134.289 32.8654 134.243 32.7269L129.589 21.4149C129.543 21.3688 129.543 21.2765 129.451 21.2336C129.405 21.1875 129.312 21.1413 129.223 21.1413C129.131 21.0952 128.996 21.0952 128.857 21.0952C128.719 21.0952 128.538 21.0952 128.31 21.0952C128.083 21.0952 127.898 21.0952 127.763 21.0952C127.625 21.0952 127.49 21.1413 127.443 21.1413C127.351 21.1875 127.305 21.1875 127.262 21.2336C127.219 21.2798 127.17 21.3259 127.17 21.4149L122.47 32.7269C122.424 32.8654 122.377 32.9544 122.377 33.0467C122.377 33.1389 122.377 33.1851 122.47 33.2279C122.516 33.2741 122.608 33.3202 122.743 33.3202C122.882 33.3202 123.063 33.3664 123.244 33.3664C123.426 33.3664 123.61 33.3664 123.745 33.3664C123.884 33.3664 123.973 33.3202 124.019 33.3202C124.065 33.2741 124.157 33.2741 124.157 33.2279C124.203 33.1818 124.203 33.1356 124.25 33.0895L125.39 30.1692" fill="#4EA0D8"/>
<path d="M128.172 31.1712H129.632C129.632 31.1712 129.724 31.1712 129.813 31.1712C129.902 31.1712 129.952 31.1712 129.995 31.1712C130.041 31.1712 130.087 31.1712 130.087 31.1712L130.133 31.1251C130.133 31.1251 130.133 31.0789 130.087 31.0328L128.627 28.1586C128.627 28.1586 128.627 28.1125 128.581 28.1125C128.581 28.1125 128.534 28.1125 128.534 28.0663C128.488 28.0663 128.488 28.0663 128.442 28.0663C128.396 28.0663 128.35 28.0663 128.261 28.0663C128.215 28.0663 128.122 28.0663 128.08 28.0663C128.037 28.0663 127.987 28.0663 127.987 28.0663C127.941 28.0663 127.941 28.0663 127.941 28.1125L127.895 28.1586L126.435 31.0328C126.435 31.0789 126.389 31.0789 126.389 31.1251C126.389 31.1251 126.389 31.1712 126.435 31.1712C126.435 31.1712 126.481 31.1712 126.527 31.1712C126.573 31.1712 126.619 31.1712 126.708 31.1712C126.755 31.1712 126.801 31.1712 126.847 31.1712C126.804 31.1712 128.172 31.1712 128.172 31.1712Z" fill="#4EA0D8"/>
<path d="M151.894 32.6314C151.894 32.7698 151.848 32.8588 151.801 32.9511C151.755 33.0434 151.709 33.0895 151.62 33.1785C151.528 33.2247 151.439 33.2708 151.347 33.317C151.254 33.3631 151.165 33.3631 151.073 33.3631H150.48C150.298 33.3631 150.114 33.3631 149.979 33.317C149.84 33.2708 149.705 33.2247 149.567 33.1357C149.428 33.0434 149.293 32.9082 149.201 32.7698C149.062 32.6314 148.927 32.404 148.789 32.1765L144.547 25.2416C144.319 24.8758 144.092 24.5132 143.861 24.1012C143.634 23.6892 143.449 23.3266 143.222 22.9608C143.222 23.4156 143.268 23.8738 143.268 24.3286C143.268 24.7835 143.268 25.2878 143.268 25.7426V33.0862C143.268 33.1324 143.268 33.1785 143.222 33.2247C143.176 33.2708 143.129 33.317 143.083 33.317C142.991 33.317 142.902 33.3631 142.81 33.3631C142.671 33.3631 142.536 33.4092 142.355 33.4092C142.174 33.4092 142.035 33.4092 141.9 33.3631C141.762 33.3631 141.673 33.317 141.626 33.317C141.58 33.317 141.488 33.2708 141.488 33.2247C141.442 33.1785 141.442 33.1324 141.442 33.0862V21.8203C141.442 21.5468 141.534 21.4083 141.669 21.2732C141.851 21.1809 141.989 21.0919 142.216 21.0919H143.129C143.357 21.0919 143.541 21.0919 143.677 21.1381C143.815 21.1842 143.95 21.2304 144.042 21.2765C144.135 21.3688 144.27 21.4578 144.362 21.5962C144.454 21.7347 144.59 21.8698 144.682 22.0972L147.922 27.4335C148.103 27.7532 148.334 28.0729 148.515 28.3927C148.696 28.7124 148.881 28.9859 149.062 29.3057C149.244 29.6254 149.428 29.899 149.563 30.2187C149.745 30.4922 149.883 30.812 150.064 31.0855C150.064 30.5845 150.064 30.0835 150.018 29.5331C150.018 28.9859 150.018 28.485 150.018 27.9807V21.3655C150.018 21.3193 150.018 21.2732 150.064 21.2271C150.11 21.1809 150.157 21.1348 150.203 21.1348C150.295 21.0886 150.384 21.0886 150.476 21.0886C150.615 21.0886 150.75 21.0886 150.931 21.0886C151.112 21.0886 151.251 21.0886 151.343 21.0886C151.482 21.0886 151.571 21.1348 151.617 21.1348C151.663 21.1809 151.755 21.1809 151.755 21.2271C151.801 21.2732 151.801 21.3193 151.801 21.3655V32.6314H151.894Z" fill="#4EA0D8"/>
<path d="M169 33.0401C169 33.0862 169 33.1324 168.954 33.1785C168.908 33.2247 168.862 33.2708 168.815 33.2708C168.723 33.3169 168.634 33.317 168.542 33.317C168.403 33.317 168.268 33.3631 168.087 33.3631C167.86 33.3631 167.632 33.3631 167.494 33.317C167.355 33.317 167.22 33.2708 167.128 33.2247C167.036 33.1785 166.989 33.1324 166.947 33.0434L161.838 26.9292V33.0434C161.838 33.0895 161.838 33.1357 161.792 33.1818C161.745 33.228 161.699 33.2741 161.653 33.2741C161.561 33.2741 161.472 33.3203 161.38 33.3203C161.241 33.3203 161.106 33.3664 160.925 33.3664C160.743 33.3664 160.605 33.3664 160.47 33.3203C160.331 33.3203 160.242 33.2741 160.196 33.2741C160.104 33.2741 160.058 33.228 160.058 33.1818C160.012 33.1357 160.012 33.0895 160.012 33.0434V21.3655C160.012 21.3193 160.012 21.2732 160.058 21.2271C160.104 21.1809 160.15 21.1809 160.196 21.1348C160.289 21.1348 160.378 21.0886 160.47 21.0886C160.608 21.0886 160.743 21.0425 160.925 21.0425C161.106 21.0425 161.244 21.0425 161.38 21.0886C161.518 21.0886 161.607 21.1348 161.653 21.1348C161.745 21.1348 161.792 21.1809 161.792 21.2271C161.838 21.2732 161.838 21.3193 161.838 21.3655V26.7941L166.719 21.3655C166.765 21.3193 166.811 21.2732 166.858 21.2271C166.904 21.1809 166.996 21.1348 167.085 21.1348C167.177 21.1348 167.266 21.0886 167.405 21.0886C167.543 21.0886 167.678 21.0886 167.86 21.0886C168.041 21.0886 168.179 21.0886 168.314 21.1348C168.453 21.1348 168.542 21.1809 168.588 21.1809C168.634 21.2271 168.68 21.2271 168.726 21.2732C168.773 21.3193 168.773 21.3655 168.773 21.4116C168.773 21.5039 168.726 21.5929 168.68 21.6391C168.634 21.7314 168.542 21.8203 168.407 21.9588L163.799 26.7941L168.726 32.5885C168.865 32.7698 168.908 32.8621 168.954 32.9082C169 32.9511 169 32.9939 169 33.0401Z" fill="#4EA0D8"/>
<path d="M53.1308 5.62685C52.8572 6.08171 52.7188 6.675 52.7188 7.31443V13.1979C52.7188 13.8373 52.5375 14.4767 52.1255 15.0239C51.7135 15.571 51.2125 16.0259 50.573 16.3456C49.9336 16.6653 49.2942 16.8466 48.6119 16.8466C47.9263 16.8466 47.2902 16.6653 46.6507 16.3456C45.2367 15.6172 44.5083 14.5657 44.5083 13.1979V7.35728C44.5083 6.6717 44.6896 6.07841 45.1016 5.48842C45.5136 4.94127 46.0146 4.48642 46.654 4.12056C47.2935 3.7547 47.9329 3.61956 48.6152 3.61956C49.2085 3.61956 49.8018 3.75799 50.395 4.03157C50.9883 4.30514 51.4432 4.671 51.8552 5.172C52.5408 4.12386 53.4505 3.61956 54.5481 3.61956C55.0952 3.61956 55.5962 3.75799 56.1433 3.98542C57.3299 4.57871 57.9232 5.44557 57.9232 6.53986V13.8834C57.9232 14.4306 57.8309 14.9777 57.6496 15.4787C57.4222 16.1182 57.1486 16.573 56.7828 16.8005H55.2765C56.0511 16.161 56.4169 15.2052 56.4169 13.8802V6.53656C56.4169 6.21685 56.3246 5.94327 56.1433 5.6697C55.7313 5.03027 55.1842 4.71055 54.5481 4.71055C53.9548 4.75999 53.4505 5.03356 53.1308 5.62685ZM47.3857 5.12256C46.4727 5.6697 46.0179 6.44427 46.0179 7.35728V13.1979C46.0179 13.8834 46.2915 14.4767 46.7925 14.9777C47.2935 15.4787 47.9329 15.7062 48.6185 15.7062C49.0733 15.7062 49.4853 15.5677 49.8973 15.3403C50.7642 14.8393 51.2191 14.1076 51.2191 13.1517V7.22214C51.2191 6.53656 50.9455 5.94327 50.4445 5.44227C49.9435 4.94127 49.304 4.71385 48.6185 4.71385C48.2065 4.75999 47.7945 4.89513 47.3857 5.12256Z" fill="#4EA0D8"/>
<path d="M61.387 6.53656C61.1135 7.31113 60.975 8.45156 60.975 9.86556C60.975 13.1484 61.476 15.4754 62.4813 16.8466H60.975C60.474 16.2072 60.062 15.0667 59.7885 13.4714C59.561 12.2387 59.4688 11.0521 59.4688 9.82272C59.4688 7.95386 59.65 6.53985 60.062 5.62685C60.6553 4.25899 61.888 3.57341 63.7569 3.57341C65.6258 3.57341 66.8585 4.25899 67.4518 5.5807C67.8176 6.49371 68.0451 7.86157 68.0451 9.82272C68.0451 11.1016 67.9528 12.3771 67.7253 13.656C67.4518 15.1623 67.0859 16.2105 66.5849 16.8037H65.0786C65.4445 16.3489 65.7181 15.7095 65.9455 14.8426C66.3575 13.3363 66.5388 11.6487 66.5388 9.77987C66.5388 8.31972 66.4003 7.17928 66.1729 6.45086C65.7609 5.26428 64.9863 4.67099 63.7536 4.67099C62.5736 4.75999 61.7529 5.35328 61.387 6.53656Z" fill="#4EA0D8"/>
<path d="M71.6972 4.02827V5.07641H75.3921V9.4997C76.2128 9.77327 76.8984 10.2281 77.4917 10.9137C78.085 11.5993 78.3585 12.3739 78.3585 13.1946C78.3585 14.2427 77.9037 15.1096 76.9907 15.8413C76.1238 16.5269 75.1647 16.8433 74.0704 16.8433C72.9761 16.8433 72.0169 16.5236 71.1501 15.8413C70.2371 15.1129 69.7822 14.246 69.7822 13.1946C69.7822 12.509 69.9635 11.9157 70.3755 11.3257C70.7875 10.7786 71.2885 10.3237 71.928 10.004C72.5674 9.68428 73.2068 9.503 73.8891 9.503V6.22014H72.2015C71.5621 6.22014 71.1995 6.22014 71.1072 6.22014C70.6062 6.17399 70.3327 5.99271 70.2404 5.71914C70.1942 5.58071 70.1481 5.30713 70.1481 4.94457V4.03156H71.6972V4.02827ZM72.7915 11.0093C71.8324 11.5564 71.3314 12.2882 71.3314 13.244C71.3314 13.9296 71.6049 14.5229 72.1982 15.0239C72.7915 15.5249 73.4309 15.7523 74.1132 15.7523C74.5252 15.7523 74.9801 15.6139 75.3921 15.3864C76.3941 14.8393 76.8984 14.1537 76.8984 13.1979C76.8984 12.743 76.76 12.331 76.4864 11.919C75.8931 11.0521 75.0724 10.5973 74.1132 10.5973C73.6584 10.6434 73.2497 10.7357 72.7915 11.0093Z" fill="#4EA0D8"/>
<path d="M82.5545 6.53656C82.281 7.31113 82.1425 8.45156 82.1425 9.86556C82.1425 13.1484 82.6435 15.4754 83.6488 16.8466H82.1425C81.6415 16.2072 81.2295 15.0667 80.9559 13.4714C80.7285 12.2387 80.6362 11.0521 80.6362 9.82272C80.6362 7.95386 80.8175 6.53985 81.2295 5.62685C81.8228 4.25899 83.0555 3.57341 84.9244 3.57341C86.7932 3.57341 88.026 4.25899 88.6193 5.5807C88.9851 6.49371 89.2125 7.86157 89.2125 9.82272C89.2125 11.1016 89.1202 12.3771 88.8928 13.656C88.6192 15.1623 88.2534 16.2105 87.7524 16.8037H86.2461C86.612 16.3489 86.8855 15.7095 87.113 14.8426C87.525 13.3363 87.7063 11.6487 87.7063 9.77987C87.7063 8.31972 87.5678 7.17928 87.3404 6.45086C86.9284 5.26428 86.1538 4.67099 84.9211 4.67099C83.7411 4.75999 82.9204 5.35328 82.5545 6.53656Z" fill="#4EA0D8"/>
<path d="M92.4988 4.02826V13.3791C92.4988 14.9744 93.3196 15.7523 94.9181 15.7523C95.785 15.7523 96.3783 15.571 96.787 15.2052C97.1529 14.8393 97.3803 14.246 97.3803 13.3791C97.3803 12.7397 97.2419 12.2387 96.9683 11.8728C96.876 11.6916 96.6024 11.4608 96.2827 11.1444C96.0091 10.917 95.8707 10.6896 95.8707 10.505C95.8707 10.0501 96.0091 9.73042 96.2366 9.59199H97.7429C97.5154 9.68427 97.377 9.9117 97.377 10.3204C97.377 10.5478 97.6044 10.8676 98.1054 11.2796C98.6064 11.6916 98.8338 12.42 98.8338 13.422C98.8338 14.0614 98.6954 14.6547 98.379 15.2019C97.7396 16.3423 96.5991 16.8894 94.9116 16.8894C93.7711 16.8894 92.8581 16.5697 92.1297 15.9764C91.3551 15.337 90.9893 14.4701 90.9893 13.3758V4.02496H92.4988V4.02826Z" fill="#4EA0D8"/>
<path d="M102.627 6.53656C102.354 7.31113 102.215 8.45156 102.215 9.86556C102.215 13.1484 102.716 15.4754 103.722 16.8466H102.215C101.714 16.2072 101.302 15.0667 101.029 13.4714C100.801 12.2387 100.709 11.0521 100.709 9.82272C100.709 7.95386 100.89 6.53985 101.302 5.62685C101.896 4.25899 103.128 3.57341 104.997 3.57341C106.866 3.57341 108.099 4.25899 108.692 5.5807C109.058 6.49371 109.285 7.86157 109.285 9.82272C109.285 11.1016 109.193 12.3771 108.966 13.656C108.692 15.1623 108.326 16.2105 107.825 16.8037H106.319C106.685 16.3489 106.958 15.7095 107.186 14.8426C107.598 13.3363 107.779 11.6487 107.779 9.77987C107.779 8.31972 107.641 7.17928 107.413 6.45086C107.001 5.26428 106.227 4.67099 104.994 4.67099C103.814 4.75999 103.036 5.35328 102.627 6.53656Z" fill="#4EA0D8"/>
<path d="M122.608 4.02827V5.07641H126.303V9.4997C127.124 9.77327 127.809 10.2281 128.403 10.9137C128.996 11.5993 129.316 12.3739 129.316 13.1946C129.316 14.2427 128.861 15.1096 127.948 15.8413C127.081 16.5269 126.122 16.8433 125.027 16.8433C123.933 16.8433 122.974 16.5236 122.107 15.8413C121.194 15.1129 120.739 14.246 120.739 13.1946C120.739 12.509 120.921 11.9157 121.333 11.3257C121.745 10.7786 122.246 10.3237 122.885 10.004C123.524 9.68428 124.164 9.503 124.846 9.503V6.22014H123.159C122.519 6.22014 122.157 6.22014 122.064 6.22014C121.563 6.17399 121.29 5.99271 121.197 5.71914C121.151 5.58071 121.105 5.30713 121.105 4.94457V4.03156H122.608V4.02827ZM123.656 11.0093C122.697 11.5564 122.196 12.2882 122.196 13.244C122.196 13.9296 122.47 14.5229 123.063 15.0239C123.656 15.5249 124.296 15.7523 124.978 15.7523C125.39 15.7523 125.845 15.6139 126.257 15.3864C127.259 14.8393 127.763 14.1537 127.763 13.1979C127.763 12.743 127.625 12.331 127.351 11.919C126.758 11.0521 125.937 10.5973 124.978 10.5973C124.569 10.6434 124.111 10.7357 123.656 11.0093Z" fill="#4EA0D8"/>
<path d="M132.915 4.02827H134.421V4.94127C134.421 5.58071 134.648 6.12785 135.107 6.5827C135.288 6.72114 135.792 7.12984 136.659 7.72313C137.526 8.31642 138.165 8.95586 138.574 9.63814C138.986 10.3666 139.213 11.2334 139.213 12.2387C139.213 13.5176 138.848 14.6119 138.165 15.4787C137.437 16.3917 136.432 16.8927 135.11 16.8927C134.016 16.8927 133.056 16.5269 132.236 15.7523C131.415 15.0239 131.003 14.1109 131.003 13.0166C131.003 11.8762 131.184 11.1906 131.596 10.9631H133.103C132.737 11.2367 132.509 11.9223 132.509 13.0166C132.509 13.4286 132.648 13.8373 132.875 14.2954C133.422 15.2546 134.154 15.7556 135.11 15.7556C136.023 15.7556 136.662 15.3897 137.117 14.6152C137.483 13.9757 137.71 13.2012 137.71 12.2882C137.71 11.329 137.529 10.5544 137.117 9.96115C136.797 9.46015 136.204 8.95915 135.337 8.45485C134.424 7.90771 133.831 7.45286 133.557 7.087C133.145 6.586 132.918 5.90042 132.918 5.12585L132.915 4.02827Z" fill="#4EA0D8"/>
<path d="M148.607 3.61956V4.39413C148.607 5.35328 148.014 5.85428 146.781 5.85428C146.326 5.85428 145.822 5.71585 145.275 5.48842C144.728 5.26099 144.273 5.12256 143.953 5.12256C143.086 5.12256 142.674 5.48842 142.674 6.26299V10.3237C143.129 9.82272 143.953 9.59529 145.094 9.59529C146.234 9.59529 147.147 9.91501 147.876 10.5973C148.604 11.2829 148.97 12.1497 148.97 13.2902C148.97 14.0647 148.789 14.7042 148.469 15.2513C147.783 16.3456 146.643 16.9389 145.048 16.9389C144.408 16.9389 143.769 16.8005 143.179 16.573C141.811 15.9797 141.171 15.0667 141.171 13.7912V6.30914C141.171 5.89713 141.264 5.53456 141.491 5.21485C141.992 4.48642 142.77 4.12056 143.772 4.12056C144.138 4.12056 144.411 4.12056 144.547 4.16671C144.639 4.16671 144.912 4.259 145.367 4.34799C145.733 4.44028 146.007 4.48642 146.234 4.48642C147.513 4.48642 148.195 4.21285 148.195 3.71185H148.607V3.61956ZM143.225 11.2367C142.859 11.6487 142.678 12.2849 142.678 13.1979C142.678 13.9724 142.859 14.5657 143.271 15.0239C143.683 15.482 144.319 15.7523 145.097 15.7523C146.692 15.7523 147.516 14.8854 147.516 13.1979C147.516 12.5584 147.424 12.0574 147.289 11.6916C146.969 10.9632 146.241 10.5973 145.1 10.5973C144.23 10.6434 143.591 10.8247 143.225 11.2367Z" fill="#4EA0D8"/>
<path d="M157.184 9.32172C158.232 9.91501 158.736 10.7357 158.736 11.741V13.567C158.736 14.5262 158.324 15.3469 157.504 15.9863C156.729 16.5796 155.862 16.8532 154.811 16.8532C153.67 16.8532 152.711 16.5335 152.029 15.894C151.3 15.2546 150.935 14.3416 150.935 13.2012C150.935 12.1069 151.116 11.3752 151.528 10.9664H153.034C152.668 11.5597 152.441 12.3343 152.441 13.2012C152.441 13.9296 152.668 14.5229 153.126 15.0272C153.581 15.5282 154.175 15.7556 154.906 15.7556C155.592 15.7556 156.185 15.5743 156.64 15.1623C157.095 14.7965 157.326 14.2493 157.326 13.567V11.741C157.326 11.4213 157.233 11.1477 157.052 10.828C156.64 10.1886 156.093 9.86886 155.457 9.86886V8.77457C156.096 8.77457 156.551 8.54714 156.917 8.13514C157.237 7.72313 157.372 7.22214 157.372 6.5827C157.372 6.40142 157.326 6.1707 157.233 5.94327C157.006 5.39613 156.686 5.12255 156.231 5.12255V3.66241C156.96 3.66241 157.553 3.98212 158.057 4.57541C158.558 5.21485 158.832 5.85428 158.832 6.5827C158.782 7.72314 158.235 8.63614 157.184 9.32172Z" fill="#4EA0D8"/>
<path d="M162.292 6.53656C162.019 7.31113 161.88 8.45156 161.88 9.86556C161.88 13.1484 162.381 15.4754 163.387 16.8466H161.88C161.379 16.2072 160.967 15.0667 160.694 13.4714C160.466 12.2387 160.374 11.0521 160.374 9.82272C160.374 7.95386 160.555 6.53985 160.967 5.62685C161.561 4.25899 162.793 3.57341 164.662 3.57341C166.531 3.57341 167.764 4.25899 168.357 5.5807C168.723 6.49371 168.95 7.86157 168.95 9.82272C168.95 11.1016 168.858 12.3771 168.631 13.656C168.357 15.1623 167.991 16.2105 167.49 16.8037H165.984C166.35 16.3489 166.623 15.7095 166.851 14.8426C167.263 13.3363 167.444 11.6487 167.444 9.77987C167.444 8.31972 167.306 7.17928 167.078 6.45086C166.666 5.26428 165.892 4.67099 164.659 4.67099C163.479 4.75999 162.704 5.35328 162.292 6.53656Z" fill="#4EA0D8"/>
</svg>
