<svg width="52" height="52" viewBox="0 0 52 52" fill="none" xmlns="http://www.w3.org/2000/svg">
<path d="M49.4016 22.6172V30.3825C49.4014 30.6929 49.2942 30.9918 49.1013 31.2196C48.9083 31.4474 48.6439 31.5872 48.3607 31.6113H48.2747H39.6011C38.3603 31.6113 37.1703 31.0725 36.2929 30.1135C35.4155 29.1546 34.9226 27.8539 34.9226 26.4977C34.9226 25.1414 35.4155 23.8408 36.2929 22.8818C37.1703 21.9228 38.3603 21.384 39.6011 21.384H48.2747H48.3607C48.6446 21.4081 48.9096 21.5486 49.1026 21.7773C49.2956 22.006 49.4024 22.306 49.4016 22.6172Z" stroke="white" stroke-width="2" stroke-miterlimit="10"/>
<path d="M36.2932 22.8792C35.6389 23.5945 35.1933 24.5059 35.0129 25.498C34.8325 26.4902 34.9254 27.5185 35.2798 28.4529C35.6342 29.3874 36.2342 30.1859 37.0038 30.7476C37.7735 31.3093 38.6783 31.6088 39.6037 31.6084H48.2774H48.3634V40.8326C48.3631 41.9373 47.9614 42.9966 47.2468 43.7777C46.5322 44.5588 45.563 44.9978 44.5523 44.9982H5.81109C4.80044 44.9978 3.83127 44.5588 3.11663 43.7777C2.40199 42.9966 2.00035 41.9373 2 40.8326V12.1685C1.99965 11.6212 2.09797 11.0792 2.28934 10.5735C2.48071 10.0678 2.76138 9.60821 3.11531 9.22109C3.46923 8.83398 3.88948 8.52688 4.35204 8.31736C4.81459 8.10784 5.31039 8 5.81109 8H44.5497C45.0504 8 45.5462 8.10784 46.0087 8.31736C46.4713 8.52688 46.8915 8.83398 47.2455 9.22109C47.5994 9.60821 47.8801 10.0678 48.0714 10.5735C48.2628 11.0792 48.3611 11.6212 48.3608 12.1685V21.3927H48.2747H39.6011C38.9873 21.3902 38.3791 21.5202 37.8115 21.7753C37.2438 22.0304 36.7278 22.4055 36.2932 22.8792Z" stroke="white" stroke-width="2" stroke-miterlimit="10"/>
</svg>
